DBRep_DrawableShape

CASCADE Topology V1, (c) Matra-Datavision
Locations 18
1
              1               0               0               0 
              0               1               0               0 
              0               0               1               0 
1
              1               0               0               0 
              0               1               0               0 
              0               0               1               0 
2  2 -1 0
1
              1               0               0               0 
              0               1               0               0 
              0               0               1               0 
1
              1               0               0               0 
              0               1               0               0 
              0               0               1               0 
1
              1               0               0               0 
              0               1               0               0 
              0               0               1               0 
1
              1               0               0              -0 
              0               1               0              -0 
              0               0               1            -500 
2  4 1 5 1 6 -1 7 1 0
2  7 -1 6 1 5 -1 4 -1 0
2  5 -1 4 -1 0
2  2 -1 7 -1 6 1 5 -1 4 -1 0
1
              1               0               0               0 
              0               1               0               0 
              0               0               1            1000 
2  4 1 5 1 6 -1 7 1 12 1 0
2  12 -1 7 -1 6 1 5 -1 4 -1 0
2  2 -1 12 -1 7 -1 6 1 5 -1 4 -1 0
2  6 -1 7 1 0
2  4 1 5 1 0
2  6 -1 7 1 12 1 0
Curve2ds 0
Curves 12
1 500 500 -500 0 0 1 
1 -500 500 -500 0 0 1 
1 500 500 0 -1 0 0 
1 500 500 0 -1 0 0 
1 -500 -500 -500 0 0 1 
1 -500 500 0 0 -1 0 
1 -500 500 0 0 -1 0 
1 500 -500 -500 0 0 1 
1 -500 -500 0 1 0 0 
1 -500 -500 0 1 0 0 
1 500 -500 0 0 1 0 
1 500 -500 0 0 1 0 
Polygon3D 0
PolygonOnTriangulations 24
2 1 2 
p 5 1 0 1000 
2 4 3 
p 5 1 0 1000 
2 4 3 
p 5 1 0 1000 
2 1 2 
p 5 1 0 1000 
2 1 4 
p 5 1 0 1000 
2 1 2 
p 5 1 0 1000 
2 2 3 
p 5 1 0 1000 
2 1 2 
p 5 1 0 1000 
2 4 3 
p 5 1 0 1000 
2 1 2 
p 5 1 0 1000 
2 1 4 
p 5 1 0 1000 
2 2 3 
p 5 1 0 1000 
2 2 3 
p 5 1 0 1000 
2 2 3 
p 5 1 0 1000 
2 4 3 
p 5 1 0 1000 
2 1 2 
p 5 1 0 1000 
2 1 4 
p 5 1 0 1000 
2 3 4 
p 5 1 0 1000 
2 2 3 
p 5 1 0 1000 
2 3 4 
p 5 1 0 1000 
2 1 4 
p 5 1 0 1000 
2 4 1 
p 5 1 0 1000 
2 2 3 
p 5 1 0 1000 
2 4 1 
p 5 1 0 1000 
Surfaces 6
1 500 500 -500 0 -1 0 -1 0 0 -0 -0 -1 
1 -500 500 -500 1 0 0 0 -1 0 0 0 -1 
1 -500 -500 -500 0 1 0 1 0 0 0 0 -1 
1 500 -500 -500 -1 0 0 0 1 0 0 0 -1 
1 0 0 0 0 0 1 1 0 0 0 1 0 
1 0 0 0 0 0 1 1 0 0 0 1 0 
Triangulations 6
4 2 1 5
500 500 -500 500 500 500 -500 500 500 -500 500 -500 0 0 0 -1000 1000 -1000 1000 0 4 1 2 4 2 3 
4 2 1 5
500 -500 -500 500 -500 500 500 500 500 500 500 -500 0 0 0 -1000 1000 -1000 1000 0 4 1 2 4 2 3 
4 2 1 5
-500 500 -500 -500 500 500 -500 -500 500 -500 -500 -500 0 0 0 -1000 1000 -1000 1000 0 4 1 2 4 2 3 
4 2 1 5
500 500 0 -500 500 0 -500 -500 0 500 -500 0 500 500 -500 500 -500 -500 500 -500 1 2 3 1 3 4 
4 2 1 5
500 500 0 -500 500 0 -500 -500 0 500 -500 0 500 500 -500 500 -500 -500 500 -500 1 2 3 1 3 4 
4 2 1 5
-500 -500 -500 -500 -500 500 500 -500 500 500 -500 -500 0 0 0 -1000 1000 -1000 1000 0 4 1 2 4 2 3 

TShapes 35
Ve
1e-07
500 500 -500
0 0

0101101
*
Ve
1e-07
500 500 500
0 0

0101101
*
Ed
 1e-07 1 1 0
1  1 0 0 1000
6  1 1 0
6  2 2 0
0

0101000
+35 3 -34 3 *
Ve
1e-07
-500 500 -500
0 0

0101101
*
Ve
1e-07
-500 500 500
0 0

0101101
*
Ed
 1e-07 1 1 0
1  2 0 0 1000
6  3 1 0
6  4 3 0
0

0101000
+32 3 -31 3 *
Ed
 1e-07 1 1 0
1  3 0 0 1000
6  5 1 9
6  6 4 10
0

0101000
+35 11 -32 11 *
Ed
 1e-07 1 1 0
1  4 0 0 1000
6  7 1 14
6  8 5 10
0

0101000
+34 15 -31 15 *
Wi

0101100
+33 0 -30 0 -29 8 +28 13 *
Fa
0  1e-07 1 0
2  1
0111000
+27 0 *
Ve
1e-07
-500 -500 -500
0 0

0101101
*
Ve
1e-07
-500 -500 500
0 0

0101101
*
Ed
 1e-07 1 1 0
1  5 0 0 1000
6  9 3 0
6  10 6 0
0

0101000
+25 3 -24 3 *
Ed
 1e-07 1 1 0
1  6 0 0 1000
6  11 3 9
6  12 4 10
0

0101000
+32 11 -25 11 *
Ed
 1e-07 1 1 0
1  7 0 0 1000
6  13 3 14
6  14 5 10
0

0101000
+31 15 -24 15 *
Wi

0101100
+30 0 -23 0 -22 8 +21 13 *
Fa
0  1e-07 2 0
2  3
0111000
+20 0 *
Ve
1e-07
500 -500 -500
0 0

0101101
*
Ve
1e-07
500 -500 500
0 0

0101101
*
Ed
 1e-07 1 1 0
1  8 0 0 1000
6  15 6 0
6  16 2 0
0

0101000
+18 3 -17 3 *
Ed
 1e-07 1 1 0
1  9 0 0 1000
6  17 6 9
6  18 4 10
0

0101000
+25 11 -18 11 *
Ed
 1e-07 1 1 0
1  10 0 0 1000
6  19 6 14
6  20 5 10
0

0101000
+24 15 -17 15 *
Wi

0101100
+23 0 -16 0 -15 8 +14 13 *
Fa
0  1e-07 3 0
2  6
0111000
+13 0 *
Ed
 1e-07 1 1 0
1  11 0 0 1000
6  21 2 9
6  22 4 10
0

0101000
+18 11 -35 11 *
Ed
 1e-07 1 1 0
1  12 0 0 1000
6  23 2 14
6  24 5 10
0

0101000
+17 15 -34 15 *
Wi

0101100
+16 0 -33 0 -11 8 +10 13 *
Fa
0  1e-07 4 0
2  2
0111000
+9 0 *
Wi

0101100
+29 0 +22 0 +15 0 +11 0 *
Fa
0  1e-07 5 0
2  4
0111000
+7 17 *
Wi

0101100
+28 0 +21 0 +14 0 +10 0 *
Fa
0  1e-07 6 0
2  5
0111000
+5 17 *
Sh

0101100
+26 0 +19 0 +12 0 +8 0 +6 16 -4 18 *
So

0100000
-3 0 *
Co

1100000
+2 1 *

+1 0 