DBRep_DrawableShape

CASCADE Topology V1, (c) Matra-Datavision
Locations 18
1
              1               0               0               0 
              0               1               0               0 
              0               0               1               0 
1
              1               0               0               0 
              0               1               0               0 
              0               0               1               0 
2  2 -1 0
1
              1               0               0               0 
              0               1               0               0 
              0               0               1               0 
1
              1               0               0               0 
              0               1               0               0 
              0               0               1               0 
1
              1               0               0               0 
              0               1               0               0 
              0               0               1               0 
1
              1               0               0              -0 
              0               1               0              -0 
              0               0               1            -100 
2  4 1 5 1 6 -1 7 1 0
2  7 -1 6 1 5 -1 4 -1 0
2  5 -1 4 -1 0
2  2 -1 7 -1 6 1 5 -1 4 -1 0
1
              1               0               0               0 
              0               1               0               0 
              0               0               1             200 
2  4 1 5 1 6 -1 7 1 12 1 0
2  12 -1 7 -1 6 1 5 -1 4 -1 0
2  2 -1 12 -1 7 -1 6 1 5 -1 4 -1 0
2  6 -1 7 1 0
2  4 1 5 1 0
2  6 -1 7 1 12 1 0
Curve2ds 4
1 7.8540019080430801 0 0 -1 
1 4.7123687063160933 0 0 -1 
1 0 0 1 0 
1 0 -200 1 0 
Curves 6
1 -1.7859165842683715e-14 199.99999995889621 -100 0 0 1 
1 4.6466057004148247e-14 -199.99999995889621 -100 0 0 1 
1 -2.4492936082659506e-14 199.99999995889621 0 1.2246468043846631e-16 -1 0 
1 -2.4492936082659506e-14 199.99999995889621 0 1.2246468043846631e-16 -1 0 
2 0.0040548137191060247 1.0815582147271873e-14 0 0 0 1 1 0 0 0 1 0 200
2 0.0040548137191060247 1.0815582147271873e-14 0 0 0 1 1 0 0 0 1 0 200
Polygon3D 0
PolygonOnTriangulations 12
2 23 22 
p 1.3333400913562 1 0 200 
2 1 2 
p 1.3333400913562 1 0 200 
2 1 2 
p 1.3333400913562 1 0 200 
2 4 3 
p 1.3333400913562 1 0 200 
2 1 4 
p 1.3333400913562 1 0 399.999999917792 
2 1 2 
p 1.3333400913562 1 0 399.999999917792 
2 2 3 
p 1.3333400913562 1 0 399.999999917792 
2 1 2 
p 1.3333400913562 1 0 399.999999917792 
21 1 24 25 26 27 28 29 30 31 32 33 34 35 36 37 38 39 40 41 42 23 
p 1.3333400913562 1 4.71236870631609 4.86945036640244 5.02653202648879 5.18361368657514 5.34069534666149 5.49777700674784 5.65485866683419 5.81194032692054 5.96902198700688 6.12610364709323 6.28318530717958 6.44026696726593 6.59734862735228 6.75443028743863 6.91151194752498 7.06859360761133 7.22567526769768 7.38275692778403 7.53983858787037 7.69692024795672 7.85400190804308 
21 2 3 4 5 6 7 8 9 10 11 12 13 14 15 16 17 18 19 20 21 1 
p 1.3333400913562 1 4.71236870631609 4.86945036640244 5.02653202648879 5.18361368657514 5.34069534666149 5.49777700674784 5.65485866683419 5.81194032692054 5.96902198700688 6.12610364709323 6.28318530717958 6.44026696726593 6.59734862735228 6.75443028743863 6.91151194752498 7.06859360761133 7.22567526769768 7.38275692778403 7.53983858787037 7.69692024795672 7.85400190804308 
21 2 3 4 5 6 7 8 9 10 11 12 13 14 15 16 17 18 19 20 21 22 
p 1.3333400913562 1 4.71236870631609 4.86945036640244 5.02653202648879 5.18361368657514 5.34069534666149 5.49777700674784 5.65485866683419 5.81194032692054 5.96902198700688 6.12610364709323 6.28318530717958 6.44026696726593 6.59734862735228 6.75443028743863 6.91151194752498 7.06859360761133 7.22567526769768 7.38275692778403 7.53983858787037 7.69692024795672 7.85400190804308 
21 2 3 4 5 6 7 8 9 10 11 12 13 14 15 16 17 18 19 20 21 1 
p 1.3333400913562 1 4.71236870631609 4.86945036640244 5.02653202648879 5.18361368657514 5.34069534666149 5.49777700674784 5.65485866683419 5.81194032692054 5.96902198700688 6.12610364709323 6.28318530717958 6.44026696726593 6.59734862735228 6.75443028743863 6.91151194752498 7.06859360761133 7.22567526769768 7.38275692778403 7.53983858787037 7.69692024795672 7.85400190804308 
Surfaces 4
1 -2.4492936082659506e-14 199.99999995889621 -100 1 1.2246468043846631e-16 0 1.2246468043846631e-16 -1 0 0 0 -1 
2 0.0040548137191060247 1.0815582147271873e-14 -100 -0 -0 -1 1 0 0 0 1 0 200
1 69.283708299956459 1.818976628786649e-14 0 0 0 1 1 0 0 0 1 0 
1 69.283708299956459 1.818976628786649e-14 0 0 0 1 1 0 0 0 1 0 
Triangulations 4
4 2 1 1.3333400913562
-1.78591658426837e-14 199.999999958896 -100 -1.78591658426837e-14 199.999999958896 100 4.64660570041482e-14 -199.999999958896 100 4.64660570041482e-14 -199.999999958896 -100 0 0 0 -200 399.999999917792 -200 399.999999917792 0 4 1 2 4 2 3 
42 40 1 1.3333400913562
4.64660570041482e-14 -199.999999958896 -100 4.64660570041482e-14 -199.999999958896 100 31.2873434135466 -197.538238967497 100 61.8043685949714 -190.21230563909 100 90.7996257466498 -178.202593412563 100 117.559137015591 -161.804828878841 100 141.423977450623 -141.422789823182 100 161.806500339506 -117.558362619913 100 178.204807394024 -90.7991838058738 100 190.215107469916 -61.804170145884 100 197.541659501079 -31.2872934972059 100 200.004054813719 -7.48713025578722e-13 100 197.541659501079 31.2872934972044 100 190.215107469917 61.8041701458826 100 178.204807394025 90.7991838058725 100 161.806500339507 117.558362619911 100 141.423977450625 141.422789823181 100 117.559137015592 161.80482887884 100 90.7996257466512 178.202593412562 100 61.8043685949728 190.21230563909 100 31.2873434135481 197.538238967497 100 -1.78591658426837e-14 199.999999958896 100 -1.78591658426837e-14 199.999999958896 -100 31.2873434135466 -197.538238967497 -100 61.8043685949714 -190.21230563909 -100 90.7996257466498 -178.202593412563 -100 117.559137015591 -161.804828878841 -100 141.423977450623 -141.422789823182 -100 161.806500339506 -117.558362619913 -100 178.204807394024 -90.7991838058738 -100 190.215107469916 -61.804170145884 -100 197.541659501079 -31.2872934972059 -100 200.004054813719 -7.48713025578722e-13 -100 197.541659501079 31.2872934972044 -100 190.215107469917 61.8041701458826 -100 178.204807394025 90.7991838058725 -100 161.806500339507 117.558362619911 -100 141.423977450625 141.422789823181 -100 117.559137015592 161.80482887884 -100 90.7996257466512 178.202593412562 -100 61.8043685949728 190.21230563909 -100 31.2873434135481 197.538238967497 -100 4.71236870631609 0 4.71236870631609 -200 4.86945036640244 -200 5.02653202648879 -200 5.18361368657514 -200 5.34069534666149 -200 5.49777700674784 -200 5.65485866683419 -200 5.81194032692054 -200 5.96902198700688 -200 6.12610364709323 -200 6.28318530717958 -200 6.44026696726593 -200 6.59734862735228 -200 6.75443028743863 -200 6.91151194752498 -200 7.06859360761133 -200 7.22567526769768 -200 7.38275692778403 -200 7.53983858787037 -200 7.69692024795672 -200 7.85400190804308 -200 7.85400190804308 0 4.86945036640244 0 5.02653202648879 0 5.18361368657514 0 5.34069534666149 0 5.49777700674784 0 5.65485866683419 0 5.81194032692054 0 5.96902198700688 0 6.12610364709323 0 6.28318530717958 0 6.44026696726593 0 6.59734862735228 0 6.75443028743863 0 6.91151194752498 0 7.06859360761133 0 7.22567526769768 0 7.38275692778403 0 7.53983858787037 0 7.69692024795672 0 24 1 2 24 2 3 25 3 4 25 24 3 26 4 5 26 25 4 27 5 6 27 26 5 28 6 7 28 27 6 29 7 8 29 28 7 30 8 9 30 29 8 31 9 10 31 30 9 32 10 11 32 11 12 32 31 10 33 32 12 34 12 13 34 13 14 34 33 12 35 34 14 36 14 15 36 15 16 36 35 14 37 16 17 37 36 16 38 37 17 38 17 18 39 38 18 40 39 18 40 18 19 41 19 20 41 40 19 42 41 20 42 20 21 23 21 22 23 42 21 
21 19 1 1.3333400913562
-1.78591658426837e-14 199.999999958896 0 4.64660570041482e-14 -199.999999958896 0 31.2873434135466 -197.538238967497 0 61.8043685949714 -190.21230563909 0 90.7996257466498 -178.202593412563 0 117.559137015591 -161.804828878841 0 141.423977450623 -141.422789823182 0 161.806500339506 -117.558362619913 0 178.204807394024 -90.7991838058738 0 190.215107469916 -61.804170145884 0 197.541659501079 -31.2872934972059 0 200.004054813719 -7.48713025578722e-13 0 197.541659501079 31.2872934972044 0 190.215107469917 61.8041701458826 0 178.204807394025 90.7991838058725 0 161.806500339507 117.558362619911 0 141.423977450625 141.422789823181 0 117.559137015592 161.80482887884 0 90.7996257466512 178.202593412562 0 61.8043685949728 190.21230563909 0 31.2873434135481 197.538238967497 0 -69.2837082999565 199.999999958896 -69.2837082999564 -199.999999958896 -37.9963648864099 -197.538238967497 -7.4793397049851 -190.21230563909 21.5159174466933 -178.202593412563 48.2754287156346 -161.804828878841 72.140269150667 -141.422789823182 92.5227920395493 -117.558362619913 108.921099094068 -90.7991838058739 120.93139916996 -61.804170145884 128.257951201123 -31.287293497206 130.720346513763 -7.67386154620908e-13 128.257951201123 31.2872934972044 120.93139916996 61.8041701458826 108.921099094068 90.7991838058725 92.5227920395502 117.558362619911 72.1402691506681 141.422789823181 48.2754287156359 161.80482887884 21.5159174466947 178.202593412562 -7.47933970498366 190.21230563909 -37.9963648864084 197.538238967497 6 4 5 7 3 4 7 4 6 10 7 8 10 8 9 1 2 3 12 10 11 12 7 10 13 21 1 13 1 3 13 3 7 13 7 12 18 19 20 16 13 14 16 14 15 17 20 21 17 21 13 17 18 20 17 13 16 
21 19 1 1.3333400913562
-1.78591658426837e-14 199.999999958896 0 4.64660570041482e-14 -199.999999958896 0 31.2873434135466 -197.538238967497 0 61.8043685949714 -190.21230563909 0 90.7996257466498 -178.202593412563 0 117.559137015591 -161.804828878841 0 141.423977450623 -141.422789823182 0 161.806500339506 -117.558362619913 0 178.204807394024 -90.7991838058738 0 190.215107469916 -61.804170145884 0 197.541659501079 -31.2872934972059 0 200.004054813719 -7.48713025578722e-13 0 197.541659501079 31.2872934972044 0 190.215107469917 61.8041701458826 0 178.204807394025 90.7991838058725 0 161.806500339507 117.558362619911 0 141.423977450625 141.422789823181 0 117.559137015592 161.80482887884 0 90.7996257466512 178.202593412562 0 61.8043685949728 190.21230563909 0 31.2873434135481 197.538238967497 0 -69.2837082999565 199.999999958896 -69.2837082999564 -199.999999958896 -37.9963648864099 -197.538238967497 -7.4793397049851 -190.21230563909 21.5159174466933 -178.202593412563 48.2754287156346 -161.804828878841 72.140269150667 -141.422789823182 92.5227920395493 -117.558362619913 108.921099094068 -90.7991838058739 120.93139916996 -61.804170145884 128.257951201123 -31.287293497206 130.720346513763 -7.67386154620908e-13 128.257951201123 31.2872934972044 120.93139916996 61.8041701458826 108.921099094068 90.7991838058725 92.5227920395502 117.558362619911 72.1402691506681 141.422789823181 48.2754287156359 161.80482887884 21.5159174466947 178.202593412562 -7.47933970498366 190.21230563909 -37.9963648864084 197.538238967497 6 4 5 7 3 4 7 4 6 10 7 8 10 8 9 1 2 3 12 10 11 12 7 10 13 21 1 13 1 3 13 3 7 13 7 12 18 19 20 16 13 14 16 14 15 17 20 21 17 21 13 17 18 20 17 13 16 

TShapes 21
Ve
1.0000000663377e-07
-1.78591658426837e-14 199.999999958896 -100
0 0

0101101
*
Ve
1.0000000663377e-07
-1.78591658426837e-14 199.999999958896 100
0 0

0101101
*
Ed
 1.0000000663377e-07 1 1 0
1  1 0 0 200
2  1 2 0 0 200
6  1 2 0
6  2 1 0
0

0101000
+21 3 -20 3 *
Ve
1.00000021973121e-07
4.64660570041482e-14 -199.999999958896 -100
0 0

0101101
*
Ve
1.00000021973121e-07
4.64660570041482e-14 -199.999999958896 100
0 0

0101101
*
Ed
 1.00000021973121e-07 1 1 0
1  2 0 0 200
2  2 2 0 0 200
6  3 2 0
6  4 1 0
0

0101000
+18 3 -17 3 *
Ed
 1e-07 1 1 0
1  3 0 0 399.999999917792
6  5 1 9
6  6 3 10
0

0101000
+21 11 -18 11 *
Ed
 1e-07 1 1 0
1  4 0 0 399.999999917792
6  7 1 14
6  8 4 10
0

0101000
+20 15 -17 15 *
Wi

0101100
+19 0 -16 0 -15 8 +14 13 *
Fa
0  1e-07 1 0
2  1
0111000
+13 0 *
Ed
 1e-07 1 1 0
1  5 0 4.71236870631609 7.85400190804308
2  3 2 9 4.71236870631609 7.85400190804308
6  9 2 9
6  10 3 10
0

0101000
+18 11 -21 11 *
Ed
 1e-07 1 1 0
1  6 0 4.71236870631609 7.85400190804308
2  4 2 14 4.71236870631609 7.85400190804308
6  11 2 14
6  12 4 10
0

0101000
+17 15 -20 15 *
Wi

0101100
+16 0 -19 0 -11 8 +10 13 *
Fa
0  1e-07 2 0
2  2
0111000
+9 0 *
Wi

0101100
+15 0 +11 0 *
Fa
0  1e-07 3 0
2  3
0111000
+7 17 *
Wi

0101100
+14 0 +10 0 *
Fa
0  1e-07 4 0
2  4
0111000
+5 17 *
Sh

0101100
+12 0 +8 0 +6 16 -4 18 *
So

0100000
-3 0 *
Co

1100000
+2 1 *

+1 0 