DBRep_DrawableShape

CASCADE Topology V1, (c) Matra-Datavision
Locations 18
1
              1               0               0               0 
              0               1               0               0 
              0               0               1               0 
1
              1               0               0               0 
              0               1               0               0 
              0               0               1               0 
2  2 -1 0
1
              1               0               0               0 
              0               1               0               0 
              0               0               1               0 
1
              1               0               0               0 
              0               1               0               0 
              0               0               1               0 
1
              1               0               0               0 
              0               1               0               0 
              0               0               1               0 
1
              1               0               0              -0 
              0               1               0              -0 
              0               0               1            -100 
2  4 1 5 1 6 -1 7 1 0
2  7 -1 6 1 5 -1 4 -1 0
2  5 -1 4 -1 0
2  2 -1 7 -1 6 1 5 -1 4 -1 0
1
              1               0               0               0 
              0               1               0               0 
              0               0               1             200 
2  4 1 5 1 6 -1 7 1 12 1 0
2  12 -1 7 -1 6 1 5 -1 4 -1 0
2  2 -1 12 -1 7 -1 6 1 5 -1 4 -1 0
2  6 -1 7 1 0
2  4 1 5 1 0
2  6 -1 7 1 12 1 0
Curve2ds 4
1 1.5707963267948966 0 0 -1 
1 4.7123889803846897 0 0 -1 
1 0 0 1 0 
1 0 -200 1 0 
Curves 6
1 1.2246467991473532e-14 200 -100 0 0 1 
1 -1.8369701992971355e-14 -200 -100 0 0 1 
1 1.2246467991473532e-14 200 0 -3.061616997868383e-17 -1 0 
1 1.2246467991473532e-14 200 0 -3.061616997868383e-17 -1 0 
2 0 -7.1176746130931332e-30 0 0 0 1 1 0 0 0 1 0 200
2 0 -7.1176746130931332e-30 0 0 0 1 1 0 0 0 1 0 200
Polygon3D 0
PolygonOnTriangulations 12
2 1 2 
p 1.33333333333333 1 0 200 
2 1 2 
p 1.33333333333333 1 0 200 
2 23 22 
p 1.33333333333333 1 0 200 
2 4 3 
p 1.33333333333333 1 0 200 
2 1 4 
p 1.33333333333333 1 0 400 
2 1 2 
p 1.33333333333333 1 0 400 
2 2 3 
p 1.33333333333333 1 0 400 
2 1 2 
p 1.33333333333333 1 0 400 
21 1 24 25 26 27 28 29 30 31 32 33 34 35 36 37 38 39 40 41 42 23 
p 1.33333333333333 1 1.5707963267949 1.72787595947439 1.88495559215388 2.04203522483337 2.19911485751286 2.35619449019234 2.51327412287183 2.67035375555132 2.82743338823081 2.9845130209103 3.14159265358979 3.29867228626928 3.45575191894877 3.61283155162826 3.76991118430775 3.92699081698724 4.08407044966673 4.24115008234622 4.39822971502571 4.5553093477052 4.71238898038469 
21 1 3 4 5 6 7 8 9 10 11 12 13 14 15 16 17 18 19 20 21 2 
p 1.33333333333333 1 1.5707963267949 1.72787595947439 1.88495559215388 2.04203522483337 2.19911485751286 2.35619449019234 2.51327412287183 2.67035375555132 2.82743338823081 2.9845130209103 3.14159265358979 3.29867228626928 3.45575191894877 3.61283155162826 3.76991118430775 3.92699081698724 4.08407044966673 4.24115008234622 4.39822971502571 4.5553093477052 4.71238898038469 
21 2 3 4 5 6 7 8 9 10 11 12 13 14 15 16 17 18 19 20 21 22 
p 1.33333333333333 1 1.5707963267949 1.72787595947439 1.88495559215388 2.04203522483337 2.19911485751286 2.35619449019234 2.51327412287183 2.67035375555132 2.82743338823081 2.9845130209103 3.14159265358979 3.29867228626928 3.45575191894877 3.61283155162826 3.76991118430775 3.92699081698724 4.08407044966673 4.24115008234622 4.39822971502571 4.5553093477052 4.71238898038469 
21 1 3 4 5 6 7 8 9 10 11 12 13 14 15 16 17 18 19 20 21 2 
p 1.33333333333333 1 1.5707963267949 1.72787595947439 1.88495559215388 2.04203522483337 2.19911485751286 2.35619449019234 2.51327412287183 2.67035375555132 2.82743338823081 2.9845130209103 3.14159265358979 3.29867228626928 3.45575191894877 3.61283155162826 3.76991118430775 3.92699081698724 4.08407044966673 4.24115008234622 4.39822971502571 4.5553093477052 4.71238898038469 
Surfaces 4
1 1.2246467991473532e-14 200 -100 1 -3.061616997868383e-17 0 -3.061616997868383e-17 -1 0 0 0 -1 
2 0 -7.1176746130931332e-30 -100 -0 -0 -1 1 0 0 0 1 0 200
1 -69.282032302755084 7.2759576141834261e-15 0 -0 -0 -1 -1 0 0 0 1 0 
1 -69.282032302755084 7.2759576141834261e-15 0 -0 -0 -1 -1 0 0 0 1 0 
Triangulations 4
4 2 1 1.33333333333333
1.22464679914735e-14 200 -100 1.22464679914735e-14 200 100 -1.83697019929714e-14 -200 100 -1.83697019929714e-14 -200 -100 0 0 0 -200 400 -200 400 0 4 1 2 4 2 3 
42 40 1 1.33333333333333
1.22464679914735e-14 200 -100 1.22464679914735e-14 200 100 -31.2868930080462 197.537668119028 100 -61.8033988749895 190.211303259031 100 -90.7980999479093 178.201304837674 100 -117.557050458495 161.803398874989 100 -141.421356237309 141.42135623731 100 -161.803398874989 117.557050458495 100 -178.201304837674 90.7980999479094 100 -190.211303259031 61.8033988749895 100 -197.537668119028 31.2868930080462 100 -200 2.44929359829471e-14 100 -197.537668119028 -31.2868930080461 100 -190.211303259031 -61.8033988749895 100 -178.201304837674 -90.7980999479093 100 -161.80339887499 -117.557050458495 100 -141.42135623731 -141.421356237309 100 -117.557050458495 -161.803398874989 100 -90.7980999479094 -178.201304837674 100 -61.8033988749895 -190.211303259031 100 -31.2868930080462 -197.537668119028 100 -1.83697019929714e-14 -200 100 -1.83697019929714e-14 -200 -100 -31.2868930080462 197.537668119028 -100 -61.8033988749895 190.211303259031 -100 -90.7980999479093 178.201304837674 -100 -117.557050458495 161.803398874989 -100 -141.421356237309 141.42135623731 -100 -161.803398874989 117.557050458495 -100 -178.201304837674 90.7980999479094 -100 -190.211303259031 61.8033988749895 -100 -197.537668119028 31.2868930080462 -100 -200 2.44929359829471e-14 -100 -197.537668119028 -31.2868930080461 -100 -190.211303259031 -61.8033988749895 -100 -178.201304837674 -90.7980999479093 -100 -161.80339887499 -117.557050458495 -100 -141.42135623731 -141.421356237309 -100 -117.557050458495 -161.803398874989 -100 -90.7980999479094 -178.201304837674 -100 -61.8033988749895 -190.211303259031 -100 -31.2868930080462 -197.537668119028 -100 1.5707963267949 0 1.5707963267949 -200 1.72787595947439 -200 1.88495559215388 -200 2.04203522483337 -200 2.19911485751286 -200 2.35619449019234 -200 2.51327412287183 -200 2.67035375555132 -200 2.82743338823081 -200 2.9845130209103 -200 3.14159265358979 -200 3.29867228626928 -200 3.45575191894877 -200 3.61283155162826 -200 3.76991118430775 -200 3.92699081698724 -200 4.08407044966673 -200 4.24115008234622 -200 4.39822971502571 -200 4.5553093477052 -200 4.71238898038469 -200 4.71238898038469 0 1.72787595947439 0 1.88495559215388 0 2.04203522483337 0 2.19911485751286 0 2.35619449019234 0 2.51327412287183 0 2.67035375555132 0 2.82743338823081 0 2.9845130209103 0 3.14159265358979 0 3.29867228626928 0 3.45575191894877 0 3.61283155162826 0 3.76991118430775 0 3.92699081698724 0 4.08407044966673 0 4.24115008234622 0 4.39822971502571 0 4.5553093477052 0 24 1 2 24 2 3 25 3 4 25 4 5 25 24 3 26 25 5 27 5 6 27 26 5 28 6 7 28 7 8 28 27 6 29 28 8 30 8 9 30 29 8 31 9 10 31 30 9 32 10 11 32 11 12 32 31 10 33 12 13 33 32 12 34 33 13 35 13 14 35 34 13 36 14 15 36 15 16 36 35 14 37 36 16 38 37 16 38 16 17 38 17 18 39 38 18 40 39 18 40 18 19 41 19 20 41 40 19 42 41 20 42 20 21 23 21 22 23 42 21 
21 19 1 1.33333333333333
1.22464679914735e-14 200 0 -1.83697019929714e-14 -200 0 -31.2868930080462 197.537668119028 0 -61.8033988749895 190.211303259031 0 -90.7980999479093 178.201304837674 0 -117.557050458495 161.803398874989 0 -141.421356237309 141.42135623731 0 -161.803398874989 117.557050458495 0 -178.201304837674 90.7980999479094 0 -190.211303259031 61.8033988749895 0 -197.537668119028 31.2868930080462 0 -200 2.44929359829471e-14 0 -197.537668119028 -31.2868930080461 0 -190.211303259031 -61.8033988749895 0 -178.201304837674 -90.7980999479093 0 -161.80339887499 -117.557050458495 0 -141.42135623731 -141.421356237309 0 -117.557050458495 -161.803398874989 0 -90.7980999479094 -178.201304837674 0 -61.8033988749895 -190.211303259031 0 -31.2868930080462 -197.537668119028 0 -69.2820323027551 200 -69.2820323027551 -200 -37.9951392947089 197.537668119028 -7.47863342776562 190.211303259031 21.5160676451543 178.201304837674 48.2750181557395 161.80339887499 72.1393239345544 141.42135623731 92.5213665722344 117.557050458495 108.919272534918 90.7980999479093 120.929270956276 61.8033988749895 128.255635816272 31.2868930080462 130.717967697245 2.8421709430404e-14 128.255635816272 -31.2868930080461 120.929270956276 -61.8033988749895 108.919272534919 -90.7980999479093 92.5213665722344 -117.557050458495 72.1393239345545 -141.421356237309 48.2750181557396 -161.803398874989 21.5160676451543 -178.201304837674 -7.47863342776557 -190.211303259031 -37.9951392947089 -197.537668119028 18 20 19 18 21 20 16 18 17 14 16 15 12 14 13 12 21 18 12 18 16 12 16 14 9 11 10 9 12 11 9 21 12 5 4 3 8 1 2 8 3 1 8 2 21 8 21 9 8 5 3 7 6 5 7 5 8 
21 19 1 1.33333333333333
1.22464679914735e-14 200 0 -1.83697019929714e-14 -200 0 -31.2868930080462 197.537668119028 0 -61.8033988749895 190.211303259031 0 -90.7980999479093 178.201304837674 0 -117.557050458495 161.803398874989 0 -141.421356237309 141.42135623731 0 -161.803398874989 117.557050458495 0 -178.201304837674 90.7980999479094 0 -190.211303259031 61.8033988749895 0 -197.537668119028 31.2868930080462 0 -200 2.44929359829471e-14 0 -197.537668119028 -31.2868930080461 0 -190.211303259031 -61.8033988749895 0 -178.201304837674 -90.7980999479093 0 -161.80339887499 -117.557050458495 0 -141.42135623731 -141.421356237309 0 -117.557050458495 -161.803398874989 0 -90.7980999479094 -178.201304837674 0 -61.8033988749895 -190.211303259031 0 -31.2868930080462 -197.537668119028 0 -69.2820323027551 200 -69.2820323027551 -200 -37.9951392947089 197.537668119028 -7.47863342776562 190.211303259031 21.5160676451543 178.201304837674 48.2750181557395 161.80339887499 72.1393239345544 141.42135623731 92.5213665722344 117.557050458495 108.919272534918 90.7980999479093 120.929270956276 61.8033988749895 128.255635816272 31.2868930080462 130.717967697245 2.8421709430404e-14 128.255635816272 -31.2868930080461 120.929270956276 -61.8033988749895 108.919272534919 -90.7980999479093 92.5213665722344 -117.557050458495 72.1393239345545 -141.421356237309 48.2750181557396 -161.803398874989 21.5160676451543 -178.201304837674 -7.47863342776557 -190.211303259031 -37.9951392947089 -197.537668119028 18 20 19 18 21 20 16 18 17 14 16 15 12 14 13 12 21 18 12 18 16 12 16 14 9 11 10 9 12 11 9 21 12 5 4 3 8 1 2 8 3 1 8 2 21 8 21 9 8 5 3 7 6 5 7 5 8 

TShapes 21
Ve
1.00000098260761e-07
1.22464679914735e-14 200 -100
0 0

0101101
*
Ve
1.00000098260761e-07
1.22464679914735e-14 200 100
0 0

0101101
*
Ed
 1e-07 1 1 0
1  1 0 0 200
2  1 2 0 0 200
6  1 2 0
6  2 1 0
0

0101000
+21 3 -20 3 *
Ve
1.00000089807432e-07
-1.83697019929714e-14 -200 -100
0 0

0101101
*
Ve
1.00000089807432e-07
-1.83697019929714e-14 -200 100
0 0

0101101
*
Ed
 1.00000018369702e-07 1 1 0
1  2 0 0 200
2  2 2 0 0 200
6  3 2 0
6  4 1 0
0

0101000
+18 3 -17 3 *
Ed
 1.00000089807432e-07 1 1 0
1  3 0 0 400
6  5 1 9
6  6 3 10
0

0101000
+21 11 -18 11 *
Ed
 1.00000089807432e-07 1 1 0
1  4 0 0 400
6  7 1 14
6  8 4 10
0

0101000
+20 15 -17 15 *
Wi

0101100
+19 0 -16 0 -15 8 +14 13 *
Fa
0  1e-07 1 0
2  1
0111000
+13 0 *
Ed
 1e-07 1 1 0
1  5 0 1.5707963267949 4.71238898038469
2  3 2 9 1.5707963267949 4.71238898038469
6  9 2 9
6  10 3 10
0

0101000
+21 11 -18 11 *
Ed
 1e-07 1 1 0
1  6 0 1.5707963267949 4.71238898038469
2  4 2 14 1.5707963267949 4.71238898038469
6  11 2 14
6  12 4 10
0

0101000
+20 15 -17 15 *
Wi

0101100
+19 0 -16 0 -11 8 +10 13 *
Fa
0  1e-07 2 0
2  2
0111000
+9 0 *
Wi

0101100
+15 0 -11 0 *
Fa
0  1e-07 3 0
2  3
0111000
+7 17 *
Wi

0101100
+14 0 -10 0 *
Fa
0  1e-07 4 0
2  4
0111000
+5 17 *
Sh

0101100
+12 0 -8 0 +6 16 -4 18 *
So

0100000
+3 0 *
Co

1100000
+2 1 *

+1 0 