DBRep_DrawableShape

CASCADE Topology V1, (c) Matra-Datavision
Locations 29
1
              1               0               0               0 
              0               1               0               0 
              0               0               1               0 
1
              1               0               0               0 
              0               1               0               0 
              0               0               1               0 
1
              1               0               0               0 
              0               1               0               0 
              0               0               1               0 
2  2 1 3 -1 0
1
              1               0               0               0 
              0               1               0               0 
              0               0               1               0 
2  5 -1 3 1 2 -1 0
1
              1               0               0               0 
              0               1               0               0 
              0               0               1               0 
1
              1               0               0               0 
              0               1               0               0 
              0               0               1               0 
1
              1               0               0               0 
              0               1               0               0 
              0               0               1               0 
2  7 1 8 1 9 -1 0
2  5 -1 3 1 2 -1 9 1 8 -1 7 -1 0
1
              1               0               0               0 
              0               1               0               0 
              0               0               1           1.524 
2  7 1 8 1 9 -1 12 1 0
2  5 -1 3 1 2 -1 12 -1 9 1 8 -1 7 -1 0
2  9 -1 2 1 3 -1 0
2  7 1 8 1 9 -1 2 1 3 -1 0
1
              1               0               0               0 
              0               1               0               0 
              0               0               1               0 
1
              1               0               0               0 
              0               1               0               0 
              0               0               1           1.524 
1
              1               0               0              -0 
              0               1               0              -0 
              0               0               1          -1.524 
2  17 1 18 1 3 -1 19 1 0
2  5 -1 19 -1 3 1 18 -1 17 -1 0
2  9 -1 12 1 2 1 3 -1 0
2  7 1 8 1 9 -1 12 1 2 1 3 -1 0
2  17 1 18 1 3 -1 0
2  5 -1 3 1 18 -1 17 -1 0
2  5 -1 0
2  3 -1 19 1 0
2  17 1 18 1 0
2  3 -1 0
Curve2ds 0
Curves 40
1 -25 -25 0 0 0 1 
1 -25 25 0 0 0 1 
1 -25 -25 0 0 1 0 
1 -25 -25 0 0 1 0 
1 25 -25 0 0 0 1 
1 25 -25 0 -1 0 0 
1 25 -25 0 -1 0 0 
1 25 25 0 0 0 1 
1 -25 25 0 1 0 0 
1 -25 25 0 1 0 0 
1 25 25 0 0 -1 0 
1 25 1.5 0 -1 0 0 
1 6.7499999999999991 1.5 0 0 1 0 
1 6.7499999999999991 5.5 0 1 0 0 
1 14.75 5.5 0 0 1 0 
1 14.75 14.75 0 -1 0 0 
1 -14.75 14.75 0 0 -1 0 
1 -14.75 -14.75 0 1 0 0 
1 14.75 -14.75 0 0 1 0 
1 14.75 -5.5 0 -1 0 0 
1 6.7500000000666978 -5.5 0 0 1 0 
1 6.7500000000666978 -1.5 0 1 0 0 
1 25 25 0 0 -1 0 
1 25 25 0 0 -1 0 
1 25 1.5 0 -1 0 0 
1 6.7499999999999991 1.5 0 0 1 0 
1 6.7499999999999991 5.5 0 1 0 0 
1 14.75 5.5 0 0 1 0 
1 14.75 14.75 0 -1 0 0 
1 -14.75 14.75 0 0 -1 0 
1 -14.75 -14.75 0 1 0 0 
1 14.75 -14.75 0 0 1 0 
1 14.75 -5.5 0 -1 0 0 
1 6.7500000000666978 -5.5 0 0 1 0 
1 6.7500000000666978 -1.5 0 1 0 0 
1 25 25 0 0 -1 0 
1 25 -1.5 1.524 -0 -0 -1 
1 25 1.5 1.524 -0 -0 -1 
1 25 1.5 0 0 -1 0 
1 25 1.5 0 0 -1 0 
Polygon3D 0
PolygonOnTriangulations 0
Surfaces 10
1 -25 -25 0 -1 0 0 0 1 0 0 0 -1 
1 25 -25 0 0 -1 0 -1 0 0 -0 -0 -1 
1 -25 25 0 0 1 0 1 0 0 0 0 -1 
1 0 0 0 0 0 1 1 0 0 0 1 0 
1 0 0 0 0 0 1 1 0 0 0 1 0 
1 25 25 0 1 0 0 0 -1 0 0 0 -1 
1 25 25 0 1 0 0 0 -1 0 0 0 -1 
1 4.2122434017591086 2.7383400206879214e-12 1.5239999999999994 -3.7905132765696082e-33 -2.198092827335341e-33 1 1 0 3.7905132765696082e-33 -8.3319000451470373e-66 1 2.198092827335341e-33 
1 4.2122434017591086 2.7383400206879214e-12 1.5239999999999994 -3.7905132765696082e-33 -2.198092827335341e-33 1 1 0 3.7905132765696082e-33 -8.3319000451470373e-66 1 2.198092827335341e-33 
1 25 1.5 1.524 -1 0 0 0 -1 0 0 0 1 
Triangulations 0

TShapes 95
Ve
1e-07
-25 -25 0
0 0

0101101
*
Ve
1e-07
-25 -25 1.524
0 0

0101101
*
Ed
 1e-07 1 1 0
1  1 0 0 1.524
0

0101000
+95 6 -94 6 *
Ve
1e-07
-25 25 0
0 0

0101101
*
Ve
1e-07
-25 25 1.524
0 0

0101101
*
Ed
 1e-07 1 1 0
1  2 0 0 1.524
0

0101000
+92 6 -91 6 *
Ed
 1e-07 1 1 0
1  3 0 0 50
0

0101000
+95 11 -92 11 *
Ed
 1e-07 1 1 0
1  4 0 0 50
0

0101000
+94 14 -91 14 *
Wi

0101100
+93 0 -90 0 -89 10 +88 13 *
Fa
0  1e-07 1 0

0111000
+87 0 *
Ve
1e-07
25 -25 0
0 0

0101101
*
Ve
1e-07
25 -25 1.524
0 0

0101101
*
Ed
 1e-07 1 1 0
1  5 0 0 1.524
0

0101000
+85 6 -84 6 *
Ed
 1e-07 1 1 0
1  6 0 0 50
0

0101000
+85 11 -95 11 *
Ed
 1e-07 1 1 0
1  7 0 0 50
0

0101000
+84 14 -94 14 *
Wi

0101100
+83 0 -93 0 -82 10 +81 13 *
Fa
0  1e-07 2 0

0111000
+80 0 *
Ve
1e-07
25 25 0
0 0

0101101
*
Ve
1e-07
25 25 1.524
0 0

0101101
*
Ed
 1e-07 1 1 0
1  8 0 0 1.524
0

0101000
+78 6 -77 6 *
Ed
 1e-07 1 1 0
1  9 0 0 50
0

0101000
+92 11 -78 11 *
Ed
 1e-07 1 1 0
1  10 0 0 50
0

0101000
+91 14 -77 14 *
Wi

0101100
+90 0 -76 0 -75 10 +74 13 *
Fa
0  1e-07 3 0

0111000
+73 0 *
Ve
1e-07
25 1.5 0
0 0

0101101
*
Ed
 1e-07 1 1 0
1  11 0 0 23.5
0

0101000
+78 11 -71 11 *
Ve
1.00000000444089e-07
6.75 1.5 0
0 0

0101101
*
Ed
 1e-07 1 1 0
1  12 0 0 18.25
0

0101000
+71 21 -69 21 *
Ve
1e-07
6.75 5.5 0
0 0

0101101
*
Ed
 1e-07 1 1 0
1  13 0 0 4
0

0101000
+69 21 -67 21 *
Ve
1e-07
14.75 5.5 0
0 0

0101101
*
Ed
 1e-07 1 1 0
1  14 0 0 8
0

0101000
+67 21 -65 21 *
Ve
1e-07
14.75 14.75 0
0 0

0101101
*
Ed
 1e-07 1 1 0
1  15 0 0 9.25
0

0101000
+65 21 -63 21 *
Ve
1e-07
-14.75 14.75 0
0 0

0101101
*
Ed
 1e-07 1 1 0
1  16 0 0 29.5
0

0101000
+63 21 -61 21 *
Ve
1e-07
-14.75 -14.75 0
0 0

0101101
*
Ed
 1e-07 1 1 0
1  17 0 0 29.5
0

0101000
+61 21 -59 21 *
Ve
1e-07
14.75 -14.75 0
0 0

0101101
*
Ed
 1e-07 1 1 0
1  18 0 0 29.5
0

0101000
+59 21 -57 21 *
Ve
1e-07
14.75 -5.5 0
0 0

0101101
*
Ed
 1e-07 1 1 0
1  19 0 0 9.25
0

0101000
+57 21 -55 21 *
Ve
1e-07
6.7500000000667 -5.5 0
0 0

0101101
*
Ed
 1e-07 1 1 0
1  20 0 0 7.9999999999333
0

0101000
+55 21 -53 21 *
Ve
1e-07
6.7500000000667 -1.5 0
0 0

0101101
*
Ed
 1e-07 1 1 0
1  21 0 0 4
0

0101000
+53 21 -51 21 *
Ve
1e-07
25 -1.5 0
0 0

0101101
*
Ed
 1e-07 1 1 0
1  22 0 0 18.2499999999333
0

0101000
+51 21 -49 21 *
Ed
 1e-07 1 1 0
1  23 0 26.5 50
0

0101000
+49 11 -85 11 *
Wi

0101100
-89 16 -75 16 -70 16 -68 20 -66 20 -64 20 -62 20 -60 20 -58 20 -56 20 
-54 20 -52 20 -50 20 -48 20 -47 16 -82 16 *
Fa
0  1e-07 4 15

0111000
+46 0 *
Ve
1e-07
25 1.5 1.524
0 0

0101101
*
Ed
 1e-07 1 1 0
1  24 0 0 23.5
0

0101000
+77 14 -44 14 *
Ve
1.00000000444089e-07
6.75 1.5 1.524
0 0

0101101
*
Ed
 1e-07 1 1 0
1  25 0 0 18.25
0

0101000
+44 25 -42 25 *
Ve
1e-07
6.75 5.5 1.524
0 0

0101101
*
Ed
 1e-07 1 1 0
1  26 0 0 4
0

0101000
+42 25 -40 25 *
Ve
1e-07
14.75 5.5 1.524
0 0

0101101
*
Ed
 1e-07 1 1 0
1  27 0 0 8
0

0101000
+40 25 -38 25 *
Ve
1e-07
14.75 14.75 1.524
0 0

0101101
*
Ed
 1e-07 1 1 0
1  28 0 0 9.25
0

0101000
+38 25 -36 25 *
Ve
1e-07
-14.75 14.75 1.524
0 0

0101101
*
Ed
 1e-07 1 1 0
1  29 0 0 29.5
0

0101000
+36 25 -34 25 *
Ve
1e-07
-14.75 -14.75 1.524
0 0

0101101
*
Ed
 1e-07 1 1 0
1  30 0 0 29.5
0

0101000
+34 25 -32 25 *
Ve
1e-07
14.75 -14.75 1.524
0 0

0101101
*
Ed
 1e-07 1 1 0
1  31 0 0 29.5
0

0101000
+32 25 -30 25 *
Ve
1e-07
14.75 -5.5 1.524
0 0

0101101
*
Ed
 1e-07 1 1 0
1  32 0 0 9.25
0

0101000
+30 25 -28 25 *
Ve
1e-07
6.7500000000667 -5.5 1.524
0 0

0101101
*
Ed
 1e-07 1 1 0
1  33 0 0 7.9999999999333
0

0101000
+28 25 -26 25 *
Ve
1e-07
6.7500000000667 -1.5 1.524
0 0

0101101
*
Ed
 1e-07 1 1 0
1  34 0 0 4
0

0101000
+26 25 -24 25 *
Ve
1e-07
25 -1.5 1.524
0 0

0101101
*
Ed
 1e-07 1 1 0
1  35 0 0 18.2499999999333
0

0101000
+24 25 -22 25 *
Ed
 1e-07 1 1 0
1  36 0 26.5 50
0

0101000
+22 14 -84 14 *
Wi

0101100
-88 23 -74 23 -43 23 -41 24 -39 24 -37 24 -35 24 -33 24 -31 24 -29 24 
-27 24 -25 24 -23 24 -21 24 -20 23 -81 23 *
Fa
0  1e-07 5 22

0111000
+19 0 *
Ed
 1e-07 1 1 0
1  37 0 0 1.524
0

0101000
+22 26 -49 26 *
Wi

0101100
-47 16 -83 4 +20 23 -17 0 *
Fa
0  1e-07 6 4

0111000
+16 0 *
Ed
 1e-07 1 1 0
1  38 0 0 1.524
0

0101000
+44 26 -71 26 *
Wi

0101100
-70 16 +14 0 +43 23 +76 4 *
Fa
0  1e-07 7 4

0111000
+13 0 *
Ed
 1e-07 1 1 0
1  39 0 0 3
0

0101000
+71 21 -49 21 *
Wi

0101100
+68 0 +66 0 +64 0 +62 0 +60 0 +58 0 +56 0 +54 0 +52 0 +50 0 
+48 0 -11 0 *
Fa
0  1e-07 8 0

0111000
+10 28 *
Ed
 1e-07 1 1 0
1  40 0 0 3
0

0101000
+44 25 -22 25 *
Wi

0101100
+41 0 +39 0 +37 0 +35 0 +33 0 +31 0 +29 0 +27 0 +25 0 +23 0 
+21 0 -8 0 *
Fa
0  1e-07 9 0

0111000
+7 28 *
Wi

0101100
+14 0 -17 0 -8 24 +11 20 *
Fa
0  1e-07 10 0

0111000
+5 0 *
Sh

0101100
+86 4 +79 4 +72 4 -45 0 +18 0 +15 0 +12 0 -9 27 +6 29 -4 0 
*
So

0100000
+3 0 *
Co

1100000
+2 1 *

+1 0 