DBRep_DrawableShape

CASCADE Topology V1, (c) Matra-Datavision
Locations 35
1
              1               0               0               0 
              0               1               0               0 
              0               0               1               0 
1
              1               0               0               0 
              0               1               0               0 
              0               0               1               0 
1
              1               0               0               0 
              0               1               0               0 
              0               0               1               0 
2  2 1 3 -1 0
2  3 1 2 -1 0
1
              1               0               0               0 
              0               1               0               0 
              0               0               1               0 
2  6 -1 3 1 2 -1 0
1
              1               0               0               0 
              0               1               0               0 
              0               0               1               0 
1
              1               0               0               0 
              0               1               0               0 
              0               0               1               0 
1
              1               0               0               0 
              0               1               0               0 
              0               0               1               0 
1
              1               0               0              -0 
              0               1               0              -0 
              0               0               1            -100 
2  8 1 9 1 10 -1 11 1 2 1 3 -1 0
2  11 -1 10 1 9 -1 8 -1 0
2  3 1 2 -1 11 -1 10 1 9 -1 8 -1 0
2  6 -1 3 1 2 -1 11 -1 10 1 9 -1 8 -1 0
1
              1               0               0               0 
              0               1               0               0 
              0               0               1             200 
2  8 1 9 1 10 -1 11 1 16 1 2 1 3 -1 0
2  16 -1 11 -1 10 1 9 -1 8 -1 0
2  3 1 2 -1 16 -1 11 -1 10 1 9 -1 8 -1 0
2  6 -1 3 1 2 -1 16 -1 11 -1 10 1 9 -1 8 -1 0
1
              1               0               0               0 
              0               1               0               0 
              0               0               1               0 
1
              1               0               0               0 
              0               1               0               0 
              0               0               1               0 
1
              1               0               0              -0 
              0               1               0              -0 
              0               0               1            -100 
2  21 1 22 1 3 -1 23 1 0
2  23 -1 3 1 22 -1 21 -1 0
2  6 -1 23 -1 3 1 22 -1 21 -1 0
1
              1               0               0               0 
              0               1               0               0 
              0               0               1             200 
2  21 1 22 1 3 -1 23 1 27 1 0
2  27 -1 23 -1 3 1 22 -1 21 -1 0
2  6 -1 27 -1 23 -1 3 1 22 -1 21 -1 0
2  10 -1 11 1 2 1 3 -1 0
2  10 -1 11 1 16 1 2 1 3 -1 0
1
              1               0               0               0 
              0               1               0               0 
              0               0               1               0 
2  33 -1 22 1 3 -1 23 1 0
2  33 -1 22 1 3 -1 23 1 27 1 0
Curve2ds 8
1 1.5707963267948966 0 0 -1 
1 7.8539816339744828 0 0 -1 
1 4.7123889803846897 0 0 -1 
1 4.7123889803846897 0 0 -1 
1 0 0 1 0 
1 0 -200 1 0 
1 0 0 1 0 
1 0 -200 1 0 
Curves 8
1 1.2246467991473532e-14 200 -100 0 0 1 
1 -1.8369701992971355e-14 -200 -100 0 0 1 
2 0 -7.1176746130931332e-30 0 0 0 1 1 0 0 0 1 0 200
2 0 -7.1176746130931332e-30 0 0 0 1 1 0 0 0 1 0 200
2 0 0 0 0 0 1 1 0 0 0 1 0 200
2 0 0 0 0 0 1 1 0 0 0 1 0 200
1 1.2246467991473532e-14 200 0 -3.061616997868383e-17 -1 0 
1 1.2246467991473532e-14 200 0 -3.061616997868383e-17 -1 0 
Polygon3D 0
PolygonOnTriangulations 16
2 1 2 
p 1.66666666666667 1 0 200 
2 21 20 
p 1.66666666666667 1 0 200 
2 21 20 
p 1.66666666666667 1 0 200 
2 1 2 
p 1.66666666666667 1 0 200 
19 1 22 23 24 25 26 27 28 29 30 31 32 33 34 35 36 37 38 21 
p 1.66666666666667 1 1.5707963267949 1.74532925199433 1.91986217719376 2.0943951023932 2.26892802759263 2.44346095279206 2.61799387799149 2.79252680319093 2.96705972839036 3.14159265358979 3.31612557878922 3.49065850398866 3.66519142918809 3.83972435438752 4.01425727958696 4.18879020478639 4.36332312998582 4.53785605518525 4.71238898038469 
19 1 3 4 5 6 7 8 9 10 11 12 13 14 15 16 17 18 19 2 
p 1.66666666666667 1 1.5707963267949 1.74532925199433 1.91986217719376 2.0943951023932 2.26892802759263 2.44346095279206 2.61799387799149 2.79252680319093 2.96705972839036 3.14159265358979 3.31612557878922 3.49065850398866 3.66519142918809 3.83972435438752 4.01425727958696 4.18879020478639 4.36332312998582 4.53785605518525 4.71238898038469 
19 2 3 4 5 6 7 8 9 10 11 12 13 14 15 16 17 18 19 20 
p 1.66666666666667 1 1.5707963267949 1.74532925199433 1.91986217719376 2.0943951023932 2.26892802759263 2.44346095279206 2.61799387799149 2.79252680319093 2.96705972839036 3.14159265358979 3.31612557878922 3.49065850398866 3.66519142918809 3.83972435438752 4.01425727958696 4.18879020478639 4.36332312998582 4.53785605518525 4.71238898038469 
19 1 3 4 5 6 7 8 9 10 11 12 13 14 15 16 17 18 19 2 
p 1.66666666666667 1 1.5707963267949 1.74532925199433 1.91986217719376 2.0943951023932 2.26892802759263 2.44346095279206 2.61799387799149 2.79252680319093 2.96705972839036 3.14159265358979 3.31612557878922 3.49065850398866 3.66519142918809 3.83972435438752 4.01425727958696 4.18879020478639 4.36332312998582 4.53785605518525 4.71238898038469 
19 1 22 23 24 25 26 27 28 29 30 31 32 33 34 35 36 37 38 21 
p 1.66666666666667 1 4.71238898038469 4.88692190558412 5.06145483078356 5.23598775598299 5.41052068118242 5.58505360638185 5.75958653158129 5.93411945678072 6.10865238198015 6.28318530717958 6.45771823237902 6.63225115757845 6.80678408277788 6.98131700797732 7.15584993317675 7.33038285837618 7.50491578357561 7.67944870877505 7.85398163397448 
19 2 3 4 5 6 7 8 9 10 11 12 13 14 15 16 17 18 19 1 
p 1.66666666666667 1 4.71238898038469 4.88692190558412 5.06145483078356 5.23598775598299 5.41052068118242 5.58505360638185 5.75958653158129 5.93411945678072 6.10865238198015 6.28318530717958 6.45771823237902 6.63225115757845 6.80678408277788 6.98131700797732 7.15584993317675 7.33038285837618 7.50491578357561 7.67944870877505 7.85398163397448 
19 2 3 4 5 6 7 8 9 10 11 12 13 14 15 16 17 18 19 20 
p 1.66666666666667 1 4.71238898038469 4.88692190558412 5.06145483078356 5.23598775598299 5.41052068118242 5.58505360638185 5.75958653158129 5.93411945678072 6.10865238198015 6.28318530717958 6.45771823237902 6.63225115757845 6.80678408277788 6.98131700797732 7.15584993317675 7.33038285837618 7.50491578357561 7.67944870877505 7.85398163397448 
19 2 3 4 5 6 7 8 9 10 11 12 13 14 15 16 17 18 19 1 
p 1.66666666666667 1 4.71238898038469 4.88692190558412 5.06145483078356 5.23598775598299 5.41052068118242 5.58505360638185 5.75958653158129 5.93411945678072 6.10865238198015 6.28318530717958 6.45771823237902 6.63225115757845 6.80678408277788 6.98131700797732 7.15584993317675 7.33038285837618 7.50491578357561 7.67944870877505 7.85398163397448 
2 1 2 
p 1.66666666666667 1 0 400 
2 1 2 
p 1.66666666666667 1 0 400 
2 1 2 
p 1.66666666666667 1 0 400 
2 1 2 
p 1.66666666666667 1 0 400 
Surfaces 6
2 0 -7.1176746130931332e-30 -100 -0 -0 -1 1 0 0 0 1 0 200
2 0 0 -100 -0 -0 -1 1 0 0 0 1 0 200
1 -69.282032302755084 7.2759576141834261e-15 0 -0 -0 -1 -1 0 0 0 1 0 
1 -69.282032302755084 7.2759576141834261e-15 0 -0 -0 -1 -1 0 0 0 1 0 
1 69.282032302755098 -2.1827872842550281e-14 0 0 0 1 1 0 0 0 1 0 
1 69.282032302755098 -2.1827872842550281e-14 0 0 0 1 1 0 0 0 1 0 
Triangulations 6
38 36 1 1.66666666666667
3.67394039744206e-14 200 -100 3.67394039744206e-14 200 100 -34.7296355333861 196.961550602442 100 -68.4040286651337 187.938524157182 100 -100 173.205080756888 100 -128.557521937308 153.208888623796 100 -153.208888623796 128.557521937308 100 -173.205080756888 100 100 -187.938524157182 68.4040286651339 100 -196.961550602442 34.7296355333863 100 -200 2.90946461892985e-13 100 -196.961550602442 -34.7296355333857 100 -187.938524157182 -68.4040286651334 100 -173.205080756888 -99.9999999999996 100 -153.208888623796 -128.557521937308 100 -128.557521937308 -153.208888623795 100 -100 -173.205080756887 100 -68.4040286651342 -187.938524157182 100 -34.7296355333866 -196.961550602442 100 -1.83697019929714e-14 -200 100 -1.83697019929714e-14 -200 -100 -34.7296355333861 196.961550602442 -100 -68.4040286651337 187.938524157182 -100 -100 173.205080756888 -100 -128.557521937308 153.208888623796 -100 -153.208888623796 128.557521937308 -100 -173.205080756888 100 -100 -187.938524157182 68.4040286651339 -100 -196.961550602442 34.7296355333863 -100 -200 2.90946461892985e-13 -100 -196.961550602442 -34.7296355333857 -100 -187.938524157182 -68.4040286651334 -100 -173.205080756888 -99.9999999999996 -100 -153.208888623796 -128.557521937308 -100 -128.557521937308 -153.208888623795 -100 -100 -173.205080756887 -100 -68.4040286651342 -187.938524157182 -100 -34.7296355333866 -196.961550602442 -100 1.5707963267949 0 1.5707963267949 -200 1.74532925199433 -200 1.91986217719376 -200 2.0943951023932 -200 2.26892802759263 -200 2.44346095279206 -200 2.61799387799149 -200 2.79252680319093 -200 2.96705972839036 -200 3.14159265358979 -200 3.31612557878922 -200 3.49065850398866 -200 3.66519142918809 -200 3.83972435438752 -200 4.01425727958696 -200 4.18879020478639 -200 4.36332312998582 -200 4.53785605518526 -200 4.71238898038469 -200 4.71238898038469 0 1.74532925199433 0 1.91986217719376 0 2.0943951023932 0 2.26892802759263 0 2.44346095279206 0 2.61799387799149 0 2.79252680319093 0 2.96705972839036 0 3.14159265358979 0 3.31612557878922 0 3.49065850398866 0 3.66519142918809 0 3.83972435438752 0 4.01425727958696 0 4.18879020478639 0 4.36332312998582 0 4.53785605518526 0 22 1 2 22 2 3 23 3 4 23 4 5 23 22 3 24 23 5 25 5 6 25 24 5 26 6 7 26 25 6 27 7 8 27 26 7 28 8 9 28 9 10 28 27 8 29 28 10 30 10 11 30 29 10 31 11 12 31 30 11 32 12 13 32 31 12 33 13 14 33 32 13 34 14 15 34 33 14 35 15 16 35 34 15 36 35 16 36 16 17 37 36 17 37 17 18 38 37 18 38 18 19 21 38 19 21 19 20 
38 36 1 1.66666666666667
-1.83697019929714e-14 -200 -100 -1.83697019929714e-14 -200 100 34.729635533386 -196.961550602442 100 68.4040286651336 -187.938524157182 100 99.9999999999999 -173.205080756888 100 128.557521937308 -153.208888623796 100 153.208888623795 -128.557521937308 100 173.205080756888 -100 100 187.938524157182 -68.404028665134 100 196.961550602442 -34.7296355333864 100 200 -4.04257239845944e-13 100 196.961550602442 34.7296355333856 100 187.938524157182 68.4040286651333 100 173.205080756888 99.9999999999995 100 153.208888623796 128.557521937307 100 128.557521937308 153.208888623795 100 100.000000000001 173.205080756887 100 68.4040286651344 187.938524157181 100 34.7296355333868 196.961550602441 100 3.67394039744206e-14 200 100 3.67394039744206e-14 200 -100 34.729635533386 -196.961550602442 -100 68.4040286651336 -187.938524157182 -100 99.9999999999999 -173.205080756888 -100 128.557521937308 -153.208888623796 -100 153.208888623795 -128.557521937308 -100 173.205080756888 -100 -100 187.938524157182 -68.404028665134 -100 196.961550602442 -34.7296355333864 -100 200 -4.04257239845944e-13 -100 196.961550602442 34.7296355333856 -100 187.938524157182 68.4040286651333 -100 173.205080756888 99.9999999999995 -100 153.208888623796 128.557521937307 -100 128.557521937308 153.208888623795 -100 100.000000000001 173.205080756887 -100 68.4040286651344 187.938524157181 -100 34.7296355333868 196.961550602441 -100 4.71238898038469 0 4.71238898038469 -200 4.88692190558412 -200 5.06145483078356 -200 5.23598775598299 -200 5.41052068118242 -200 5.58505360638185 -200 5.75958653158129 -200 5.93411945678072 -200 6.10865238198015 -200 6.28318530717958 -200 6.45771823237902 -200 6.63225115757845 -200 6.80678408277788 -200 6.98131700797732 -200 7.15584993317675 -200 7.33038285837618 -200 7.50491578357561 -200 7.67944870877505 -200 7.85398163397448 -200 7.85398163397448 0 4.88692190558412 0 5.06145483078356 0 5.23598775598299 0 5.41052068118242 0 5.58505360638185 0 5.75958653158129 0 5.93411945678072 0 6.10865238198015 0 6.28318530717958 0 6.45771823237902 0 6.63225115757845 0 6.80678408277788 0 6.98131700797732 0 7.15584993317675 0 7.33038285837618 0 7.50491578357561 0 7.67944870877505 0 22 1 2 22 2 3 23 3 4 23 22 3 24 4 5 24 23 4 25 5 6 25 6 7 25 24 5 26 25 7 27 7 8 27 8 9 27 26 7 28 27 9 29 9 10 29 10 11 29 28 9 30 29 11 31 11 12 31 30 11 32 12 13 32 31 12 33 13 14 33 32 13 34 14 15 34 33 14 35 15 16 35 34 15 36 35 16 36 16 17 37 36 17 37 17 18 38 37 18 38 18 19 21 38 19 21 19 20 
19 17 1 1.66666666666667
3.67394039744206e-14 200 -100 -1.83697019929714e-14 -200 -100 -34.7296355333861 196.961550602442 -100 -68.4040286651337 187.938524157182 -100 -100 173.205080756888 -100 -128.557521937308 153.208888623796 -100 -153.208888623796 128.557521937308 -100 -173.205080756888 100 -100 -187.938524157182 68.4040286651339 -100 -196.961550602442 34.7296355333863 -100 -200 2.90946461892985e-13 -100 -196.961550602442 -34.7296355333857 -100 -187.938524157182 -68.4040286651334 -100 -173.205080756888 -99.9999999999996 -100 -153.208888623796 -128.557521937308 -100 -128.557521937308 -153.208888623795 -100 -100 -173.205080756887 -100 -68.4040286651342 -187.938524157182 -100 -34.7296355333866 -196.961550602442 -100 -69.2820323027551 200 -69.2820323027551 -200 -34.552396769369 196.961550602442 -0.878003637621347 187.938524157182 30.7179676972449 173.205080756888 59.2754896345527 153.208888623796 83.9268563210404 128.557521937308 103.923048454133 100 118.656491854427 68.4040286651339 127.679518299686 34.7296355333863 130.717967697245 2.8421709430404e-13 127.679518299687 -34.7296355333858 118.656491854427 -68.4040286651334 103.923048454133 -99.9999999999997 83.9268563210408 -128.557521937308 59.2754896345531 -153.208888623795 30.7179676972453 -173.205080756887 -0.878003637620878 -187.938524157182 -34.5523967693685 -196.961550602442 17 19 18 17 2 19 16 2 17 3 1 2 10 12 11 10 13 12 10 14 13 10 15 14 10 16 15 10 2 16 8 10 9 8 2 10 7 4 3 7 5 4 7 6 5 7 3 2 7 2 8 
19 17 1 1.66666666666667
3.67394039744206e-14 200 100 -1.83697019929714e-14 -200 100 -34.7296355333861 196.961550602442 100 -68.4040286651337 187.938524157182 100 -100 173.205080756888 100 -128.557521937308 153.208888623796 100 -153.208888623796 128.557521937308 100 -173.205080756888 100 100 -187.938524157182 68.4040286651339 100 -196.961550602442 34.7296355333863 100 -200 2.90946461892985e-13 100 -196.961550602442 -34.7296355333857 100 -187.938524157182 -68.4040286651334 100 -173.205080756888 -99.9999999999996 100 -153.208888623796 -128.557521937308 100 -128.557521937308 -153.208888623795 100 -100 -173.205080756887 100 -68.4040286651342 -187.938524157182 100 -34.7296355333866 -196.961550602442 100 -69.2820323027551 200 -69.2820323027551 -200 -34.552396769369 196.961550602442 -0.878003637621347 187.938524157182 30.7179676972449 173.205080756888 59.2754896345527 153.208888623796 83.9268563210404 128.557521937308 103.923048454133 100 118.656491854427 68.4040286651339 127.679518299686 34.7296355333863 130.717967697245 2.8421709430404e-13 127.679518299687 -34.7296355333858 118.656491854427 -68.4040286651334 103.923048454133 -99.9999999999997 83.9268563210408 -128.557521937308 59.2754896345531 -153.208888623795 30.7179676972453 -173.205080756887 -0.878003637620878 -187.938524157182 -34.5523967693685 -196.961550602442 17 19 18 17 2 19 16 2 17 3 1 2 10 12 11 10 13 12 10 14 13 10 15 14 10 16 15 10 2 16 8 10 9 8 2 10 7 4 3 7 5 4 7 6 5 7 3 2 7 2 8 
19 17 1 1.66666666666667
3.67394039744206e-14 200 -100 -1.83697019929714e-14 -200 -100 34.729635533386 -196.961550602442 -100 68.4040286651336 -187.938524157182 -100 99.9999999999999 -173.205080756888 -100 128.557521937308 -153.208888623796 -100 153.208888623795 -128.557521937308 -100 173.205080756888 -100 -100 187.938524157182 -68.404028665134 -100 196.961550602442 -34.7296355333864 -100 200 -4.04257239845944e-13 -100 196.961550602442 34.7296355333856 -100 187.938524157182 68.4040286651333 -100 173.205080756888 99.9999999999995 -100 153.208888623796 128.557521937307 -100 128.557521937308 153.208888623795 -100 100.000000000001 173.205080756887 -100 68.4040286651344 187.938524157181 -100 34.7296355333868 196.961550602441 -100 -69.2820323027551 200 -69.2820323027551 -200 -34.5523967693691 -196.961550602442 -0.878003637621461 -187.938524157182 30.7179676972448 -173.205080756888 59.2754896345526 -153.208888623796 83.9268563210403 -128.557521937308 103.923048454132 -100 118.656491854426 -68.404028665134 127.679518299686 -34.7296355333864 130.717967697245 -3.69482222595252e-13 127.679518299687 34.7296355333856 118.656491854427 68.4040286651333 103.923048454133 99.9999999999996 83.9268563210409 128.557521937307 59.2754896345532 153.208888623795 30.7179676972455 173.205080756887 -0.878003637620694 187.938524157181 -34.5523967693683 196.961550602442 4 2 3 6 4 5 6 2 4 9 6 7 9 7 8 11 9 10 13 11 12 13 6 9 13 9 11 14 1 2 14 18 19 14 19 1 14 2 6 14 6 13 17 18 14 16 14 15 16 17 14 
19 17 1 1.66666666666667
3.67394039744206e-14 200 100 -1.83697019929714e-14 -200 100 34.729635533386 -196.961550602442 100 68.4040286651336 -187.938524157182 100 99.9999999999999 -173.205080756888 100 128.557521937308 -153.208888623796 100 153.208888623795 -128.557521937308 100 173.205080756888 -100 100 187.938524157182 -68.404028665134 100 196.961550602442 -34.7296355333864 100 200 -4.04257239845944e-13 100 196.961550602442 34.7296355333856 100 187.938524157182 68.4040286651333 100 173.205080756888 99.9999999999995 100 153.208888623796 128.557521937307 100 128.557521937308 153.208888623795 100 100.000000000001 173.205080756887 100 68.4040286651344 187.938524157181 100 34.7296355333868 196.961550602441 100 -69.2820323027551 200 -69.2820323027551 -200 -34.5523967693691 -196.961550602442 -0.878003637621461 -187.938524157182 30.7179676972448 -173.205080756888 59.2754896345526 -153.208888623796 83.9268563210403 -128.557521937308 103.923048454132 -100 118.656491854426 -68.404028665134 127.679518299686 -34.7296355333864 130.717967697245 -3.69482222595252e-13 127.679518299687 34.7296355333856 118.656491854427 68.4040286651333 103.923048454133 99.9999999999996 83.9268563210409 128.557521937307 59.2754896345532 153.208888623795 30.7179676972455 173.205080756887 -0.878003637620694 187.938524157181 -34.5523967693683 196.961550602442 4 2 3 6 4 5 6 2 4 9 6 7 9 7 8 11 9 10 13 11 12 13 6 9 13 9 11 14 1 2 14 18 19 14 19 1 14 2 6 14 6 13 17 18 14 16 14 15 16 17 14 

TShapes 27
Ve
1.00000147246633e-07
3.67394039744206e-14 200 -100
0 0

0101101
*
Ve
1.00000147246633e-07
3.67394039744206e-14 200 100
0 0

0101101
*
Ed
 1.00000147246633e-07 1 1 0
1  1 0 0 200
2  1 1 0 0 200
2  2 2 5 0 200
6  1 1 5
6  2 2 5
0

0101000
+27 7 -26 7 *
Ve
1.00000089807432e-07
-1.83697019929714e-14 -200 -100
0 0

0101101
*
Ve
1.00000089807432e-07
-1.83697019929714e-14 -200 100
0 0

0101101
*
Ed
 1.00000044903716e-07 1 1 0
1  2 0 0 200
2  3 1 0 0 200
2  4 2 5 0 200
6  3 1 5
6  4 2 5
0

0101000
+24 7 -23 7 *
Ed
 1e-07 1 1 0
1  3 0 1.5707963267949 4.71238898038469
2  5 1 13 1.5707963267949 4.71238898038469
6  5 1 14
6  6 3 14
0

0101000
+27 15 -24 15 *
Ed
 1e-07 1 1 0
1  4 0 1.5707963267949 4.71238898038469
2  6 1 18 1.5707963267949 4.71238898038469
6  7 1 19
6  8 4 19
0

0101000
+26 20 -23 20 *
Wi

0101100
+25 4 -22 4 -21 12 +20 17 *
Fa
0  1e-07 1 4
2  1
0111000
+19 0 *
Ed
 1.00000044903716e-07 1 1 0
1  5 0 4.71238898038469 7.85398163397448
2  7 2 25 4.71238898038469 7.85398163397448
6  9 2 25
6  10 5 25
0

0101000
+24 26 -27 26 *
Ed
 1.00000044903716e-07 1 1 0
1  6 0 4.71238898038469 7.85398163397448
2  8 2 29 4.71238898038469 7.85398163397448
6  11 2 29
6  12 6 29
0

0101000
+23 30 -26 30 *
Wi

0101100
+22 4 -25 4 -17 24 +16 28 *
Fa
0  1.00000044903716e-07 2 0
2  2
0111000
+15 0 *
Ed
 1.00000089807432e-07 1 1 0
1  7 0 0 400
6  13 3 14
6  14 5 14
0

0101000
+27 15 -24 15 *
Wi

0101100
+13 12 -21 12 *
Fa
0  1e-07 3 31
2  3
0111000
+12 0 *
Ed
 1.00000089807432e-07 1 1 0
1  8 0 0 400
6  15 4 19
6  16 6 19
0

0101000
+26 20 -23 20 *
Wi

0101100
+10 17 -20 17 *
Fa
0  1e-07 4 32
2  4
0111000
+9 0 *
Wi

0101100
+13 12 +17 24 *
Fa
0  1.00000044903716e-07 5 34
2  5
0111000
+7 0 *
Wi

0101100
+10 17 +16 28 *
Fa
0  1.00000044903716e-07 6 35
2  6
0111000
+5 0 *
Sh

0101100
-18 0 -14 0 +11 0 -8 0 -6 0 +4 0 *
So

0100000
+3 0 *
Co

1100000
+2 1 *

+1 0 