<?xml version="1.0" encoding="UTF-8" standalone="no"?>
<!-- Created with Inkscape (http://www.inkscape.org/) -->

<svg
   width="210mm"
   height="297mm"
   viewBox="0 0 210 297"
   version="1.1"
   id="svg1"
   inkscape:version="1.3 (0e150ed6c4, 2023-07-21)"
   sodipodi:docname="drawing.svg"
   xmlns:inkscape="http://www.inkscape.org/namespaces/inkscape"
   xmlns:sodipodi="http://sodipodi.sourceforge.net/DTD/sodipodi-0.dtd"
   xmlns="http://www.w3.org/2000/svg"
   xmlns:svg="http://www.w3.org/2000/svg">
  <sodipodi:namedview
     id="namedview1"
     pagecolor="#ffffff"
     bordercolor="#666666"
     borderopacity="1.0"
     inkscape:showpageshadow="2"
     inkscape:pageopacity="0.0"
     inkscape:pagecheckerboard="0"
     inkscape:deskcolor="#d1d1d1"
     inkscape:document-units="mm"
     inkscape:zoom="0.72693605"
     inkscape:cx="434.70124"
     inkscape:cy="733.90225"
     inkscape:window-width="1920"
     inkscape:window-height="1009"
     inkscape:window-x="-8"
     inkscape:window-y="-8"
     inkscape:window-maximized="1"
     inkscape:current-layer="layer1"
     showgrid="false" />
  <defs
     id="defs1">
    <inkscape:path-effect
       effect="spiro"
       id="path-effect39"
       is_visible="true"
       lpeversion="1" />
    <inkscape:path-effect
       effect="spiro"
       id="path-effect37"
       is_visible="true"
       lpeversion="1" />
    <inkscape:path-effect
       effect="spiro"
       id="path-effect52"
       is_visible="true"
       lpeversion="1" />
    <inkscape:path-effect
       effect="spiro"
       id="path-effect50"
       is_visible="true"
       lpeversion="1" />
    <inkscape:path-effect
       effect="spiro"
       id="path-effect48"
       is_visible="true"
       lpeversion="1" />
    <inkscape:path-effect
       effect="spiro"
       id="path-effect46"
       is_visible="true"
       lpeversion="1" />
    <inkscape:path-effect
       effect="spiro"
       id="path-effect45"
       is_visible="true"
       lpeversion="1" />
    <inkscape:path-effect
       effect="spiro"
       id="path-effect43"
       is_visible="true"
       lpeversion="1" />
    <inkscape:path-effect
       effect="spiro"
       id="path-effect41"
       is_visible="true"
       lpeversion="1" />
    <marker
       style="overflow:visible"
       id="Dot"
       refX="0"
       refY="0"
       orient="auto"
       inkscape:stockid="Dot"
       markerWidth="0.5"
       markerHeight="0.5"
       viewBox="0 0 1 1"
       inkscape:isstock="true"
       inkscape:collect="always"
       preserveAspectRatio="xMidYMid">
      <path
         transform="scale(0.5)"
         style="fill:context-stroke;fill-rule:evenodd;stroke:none"
         d="M 5,0 C 5,2.76 2.76,5 0,5 -2.76,5 -5,2.76 -5,0 c 0,-2.76 2.3,-5 5,-5 2.76,0 5,2.24 5,5 z"
         sodipodi:nodetypes="sssss"
         id="path37" />
    </marker>
    <marker
       style="overflow:visible"
       id="marker35"
       refX="0"
       refY="0"
       orient="auto-start-reverse"
       inkscape:stockid="Dart arrow"
       markerWidth="1"
       markerHeight="1"
       viewBox="0 0 1 1"
       inkscape:isstock="true"
       inkscape:collect="always"
       preserveAspectRatio="xMidYMid">
      <path
         style="fill:context-stroke;fill-rule:evenodd;stroke:none"
         d="M 0,0 5,-5 -12.5,0 5,5 Z"
         transform="scale(-0.5)"
         id="path35" />
    </marker>
    <marker
       style="overflow:visible"
       id="marker34"
       refX="0"
       refY="0"
       orient="auto-start-reverse"
       inkscape:stockid="Dart arrow"
       markerWidth="1"
       markerHeight="1"
       viewBox="0 0 1 1"
       inkscape:isstock="true"
       inkscape:collect="always"
       preserveAspectRatio="xMidYMid">
      <path
         style="fill:context-stroke;fill-rule:evenodd;stroke:none"
         d="M 0,0 5,-5 -12.5,0 5,5 Z"
         transform="scale(-0.5)"
         id="path34" />
    </marker>
    <inkscape:path-effect
       effect="spiro"
       id="path-effect33"
       is_visible="true"
       lpeversion="1" />
    <inkscape:path-effect
       effect="spiro"
       id="path-effect31"
       is_visible="true"
       lpeversion="1" />
    <inkscape:path-effect
       effect="spiro"
       id="path-effect29"
       is_visible="true"
       lpeversion="1" />
    <inkscape:path-effect
       effect="spiro"
       id="path-effect9"
       is_visible="true"
       lpeversion="1" />
    <inkscape:path-effect
       effect="spiro"
       id="path-effect6"
       is_visible="true"
       lpeversion="1" />
    <inkscape:path-effect
       effect="spiro"
       id="path-effect1"
       is_visible="true"
       lpeversion="1" />
    <marker
       style="overflow:visible"
       id="marker12"
       refX="0"
       refY="0"
       orient="auto-start-reverse"
       inkscape:stockid="Dart arrow"
       markerWidth="1"
       markerHeight="1"
       viewBox="0 0 1 1"
       inkscape:isstock="true"
       inkscape:collect="always"
       preserveAspectRatio="xMidYMid">
      <path
         style="fill:context-stroke;fill-rule:evenodd;stroke:none"
         d="M 0,0 5,-5 -12.5,0 5,5 Z"
         transform="scale(-0.5)"
         id="path12" />
    </marker>
    <marker
       style="overflow:visible"
       id="DartArrow"
       refX="0"
       refY="0"
       orient="auto-start-reverse"
       inkscape:stockid="Dart arrow"
       markerWidth="1"
       markerHeight="1"
       viewBox="0 0 1 1"
       inkscape:isstock="true"
       inkscape:collect="always"
       preserveAspectRatio="xMidYMid">
      <path
         style="fill:context-stroke;fill-rule:evenodd;stroke:none"
         d="M 0,0 5,-5 -12.5,0 5,5 Z"
         transform="scale(-0.5)"
         id="path11" />
    </marker>
  </defs>
  <g
     inkscape:label="Layer 1"
     inkscape:groupmode="layer"
     id="layer1">
    <path
       style="fill:none;stroke:#001cf9;stroke-width:0.5;stroke-linecap:butt;stroke-linejoin:miter;stroke-dasharray:6, 6;stroke-dashoffset:0;stroke-opacity:1"
       d="M 150.32132,220.12302 59.623908,240.48811"
       id="path19" />
    <path
       style="fill:none;stroke:#000000;stroke-width:0.5;stroke-linecap:butt;stroke-linejoin:miter;stroke-dasharray:6, 6;stroke-dashoffset:6.3;stroke-opacity:1;marker-start:url(#Dot);marker-mid:url(#marker35);marker-end:url(#Dot)"
       d="M 124.59376,253.74045 93.058888,247.30807 59.6239,240.48811"
       id="path17"
       sodipodi:nodetypes="ccc" />
    <path
       style="fill:#d3d3d3;fill-opacity:0.768973;stroke:none;stroke-width:0.264583px;stroke-linecap:butt;stroke-linejoin:miter;stroke-opacity:1"
       d="m 84.040294,111.97264 -10.568096,49.213 46.034342,-36.90567 z"
       id="path14" />
    <path
       style="fill:#878787;fill-opacity:0.510745;stroke:none;stroke-width:0.264583px;stroke-linecap:butt;stroke-linejoin:miter;stroke-opacity:1"
       d="M 127.68695,99.665317 84.040294,111.97264 119.50654,124.27997 Z"
       id="path13" />
    <path
       style="fill:none;stroke:#2a54ff;stroke-width:0.5;stroke-linecap:round;stroke-linejoin:round;stroke-dasharray:none;stroke-dashoffset:0;stroke-opacity:1"
       d="m 73.472198,161.18564 10.568097,-49.213"
       id="path2"
       sodipodi:nodetypes="cc" />
    <path
       style="fill:none;stroke:#2a54ff;stroke-width:0.5;stroke-linecap:round;stroke-linejoin:round;stroke-dasharray:none;stroke-dashoffset:0;stroke-opacity:1"
       d="m 119.50654,124.27997 8.18041,-24.614653"
       id="path3"
       sodipodi:nodetypes="cc" />
    <path
       style="fill:none;stroke:#000000;stroke-width:0.5;stroke-linecap:round;stroke-linejoin:miter;stroke-dasharray:none;stroke-opacity:1;marker-end:url(#marker12)"
       d="M 109.60772,111.44347 108.76324,89.468841"
       id="path4"
       sodipodi:nodetypes="cc" />
    <path
       style="fill:none;stroke:#000000;stroke-width:0.5;stroke-linecap:round;stroke-linejoin:miter;stroke-dasharray:none;stroke-opacity:1;marker-end:url(#DartArrow)"
       d="M 92.301803,134.12841 75.600637,125.13647"
       id="path5"
       sodipodi:nodetypes="cc" />
    <path
       style="fill:none;fill-opacity:0.768973;stroke:#ff0808;stroke-width:0.5;stroke-linecap:round;stroke-linejoin:round;stroke-miterlimit:14.7;stroke-dasharray:none;stroke-dashoffset:9.52441;stroke-opacity:1;marker-end:url(#marker35)"
       d="M 72.660673,148.5 102.54887,103.92463"
       id="path48"
       inkscape:path-effect="#path-effect50"
       inkscape:original-d="m 72.660673,148.5 c 4.26162,-7.20618 25.626574,-37.3692 29.888197,-44.57537"
       transform="translate(-11.835385,129.58266)"
       sodipodi:nodetypes="cc" />
    <path
       style="fill:none;fill-opacity:0.768973;stroke:#ff0808;stroke-width:0.5;stroke-linecap:round;stroke-linejoin:round;stroke-miterlimit:14.7;stroke-dasharray:none;stroke-dashoffset:9.52441;stroke-opacity:1;marker-end:url(#marker35)"
       d="m 61.013615,168.88235 46.890545,-3.39547"
       id="path50"
       inkscape:path-effect="#path-effect52"
       inkscape:original-d="m 61.013615,168.88235 c 4.26162,-7.20618 42.628925,3.8107 46.890545,-3.39547"
       transform="translate(38.358588,55.261302)"
       sodipodi:nodetypes="cc" />
    <path
       style="fill:#979797;fill-opacity:0.509804;stroke:none;stroke-width:0.264583px;stroke-linecap:butt;stroke-linejoin:miter;stroke-opacity:1"
       d="M 92.990928,200.40993 60.921574,278.15159 124.69005,253.80937 Z"
       id="path15"
       sodipodi:nodetypes="cccc" />
    <path
       style="fill:#e1e1e1;fill-opacity:0.829114;stroke:none;stroke-width:0.264583px;stroke-linecap:butt;stroke-linejoin:miter;stroke-opacity:1"
       d="m 92.894638,200.34101 -32.06935,77.74165 -1.20138,-37.59455 z"
       id="path16" />
    <path
       style="fill:none;stroke:#2a54ff;stroke-width:0.5;stroke-linecap:round;stroke-linejoin:miter;stroke-dasharray:none;stroke-dashoffset:0;stroke-opacity:1"
       d="M 92.894628,200.34101 60.82528,278.08266"
       id="path10" />
    <path
       style="fill:none;stroke:#2a54ff;stroke-width:0.5;stroke-linecap:butt;stroke-linejoin:miter;stroke-dasharray:none;stroke-dashoffset:0;stroke-opacity:1"
       d="m 60.825288,278.08266 -1.20138,-37.59455"
       id="path18" />
    <path
       style="fill:#c7c7c7;fill-opacity:0.835443;stroke:none;stroke-width:0.265;stroke-linecap:butt;stroke-linejoin:miter;stroke-dasharray:none;stroke-opacity:1"
       d="m 92.990918,200.40993 31.699142,53.39944 25.72756,-33.61743 z"
       id="path20"
       sodipodi:nodetypes="cccc" />
    <path
       style="fill:none;stroke:#2a54ff;stroke-width:0.5;stroke-linecap:round;stroke-linejoin:miter;stroke-dasharray:none;stroke-dashoffset:0;stroke-opacity:1"
       d="m 150.32132,220.12302 -25.72756,33.61743"
       id="path8"
       sodipodi:nodetypes="cc" />
    <path
       style="fill:none;stroke:#2a54ff;stroke-width:0.5;stroke-linecap:round;stroke-linejoin:miter;stroke-dasharray:none;stroke-dashoffset:0;stroke-opacity:1"
       d="m 92.894628,200.34101 31.699132,53.39944"
       id="path7"
       sodipodi:nodetypes="cc" />
    <g
       id="g28"
       transform="translate(62.355159,-81.475821)">
      <g
         style="fill:#000000;fill-opacity:1"
         id="g5"
         transform="matrix(0.84807122,0,0,0.84807122,47.045543,159.95541)">
        <g
           id="use4"
           transform="translate(2.4920001,8.9110003)">
          <path
             style="stroke:none"
             d="M 2.5,-6.921875 1.15625,-5.5625 1.328125,-5.390625 2.5,-6.40625 3.640625,-5.390625 3.8125,-5.5625 Z m 0,0"
             id="path26" />
        </g>
      </g>
      <g
         style="fill:#000000;fill-opacity:1"
         id="g6"
         transform="matrix(0.84807122,0,0,0.84807122,47.045543,159.95541)">
        <g
           id="use5"
           transform="translate(1.993,8.9110003)">
          <path
             style="stroke:none"
             d="m 0.875,-0.59375 c -0.03125,0.15625 -0.09375,0.390625 -0.09375,0.4375 0,0.171875 0.140625,0.265625 0.296875,0.265625 0.125,0 0.296875,-0.078125 0.375,-0.28125 0,-0.015625 0.125,-0.484375 0.1875,-0.734375 l 0.21875,-0.890625 C 1.90625,-2.03125 1.96875,-2.25 2.03125,-2.46875 c 0.03125,-0.171875 0.109375,-0.46875 0.125,-0.5 0.140625,-0.3125 0.671875,-1.21875 1.625,-1.21875 0.453125,0 0.53125,0.375 0.53125,0.703125 0,0.609375 -0.484375,1.890625 -0.640625,2.3125 C 3.578125,-0.9375 3.5625,-0.8125 3.5625,-0.703125 c 0,0.46875 0.359375,0.8125 0.828125,0.8125 0.9375,0 1.296875,-1.453125 1.296875,-1.53125 0,-0.109375 -0.078125,-0.109375 -0.109375,-0.109375 -0.109375,0 -0.109375,0.03125 -0.15625,0.1875 -0.203125,0.671875 -0.53125,1.234375 -1.015625,1.234375 -0.171875,0 -0.234375,-0.09375 -0.234375,-0.328125 0,-0.25 0.078125,-0.484375 0.171875,-0.703125 0.1875,-0.53125 0.609375,-1.625 0.609375,-2.203125 0,-0.65625 -0.421875,-1.0625 -1.140625,-1.0625 -0.90625,0 -1.390625,0.640625 -1.5625,0.875 -0.046875,-0.5625 -0.453125,-0.875 -0.921875,-0.875 -0.453125,0 -0.640625,0.390625 -0.734375,0.5625 C 0.421875,-3.5 0.296875,-2.90625 0.296875,-2.875 c 0,0.109375 0.09375,0.109375 0.109375,0.109375 0.109375,0 0.109375,-0.015625 0.171875,-0.234375 0.171875,-0.703125 0.375,-1.1875 0.734375,-1.1875 0.1875,0 0.296875,0.125 0.296875,0.453125 0,0.21875 -0.03125,0.328125 -0.15625,0.84375 z m 0,0"
             id="path27" />
        </g>
      </g>
    </g>
    <g
       id="g33"
       transform="translate(17.33926,-43.516502)">
      <g
         style="fill:#000000;fill-opacity:1"
         id="g30"
         transform="matrix(0.84807122,0,0,0.84807122,47.045543,159.95541)">
        <g
           id="g29"
           transform="translate(2.4920001,8.9110003)">
          <path
             style="stroke:none"
             d="M 2.5,-6.921875 1.15625,-5.5625 1.328125,-5.390625 2.5,-6.40625 3.640625,-5.390625 3.8125,-5.5625 Z m 0,0"
             id="path28" />
        </g>
      </g>
      <g
         style="fill:#000000;fill-opacity:1"
         id="g32"
         transform="matrix(0.84807122,0,0,0.84807122,47.045543,159.95541)">
        <g
           id="g31"
           transform="translate(1.993,8.9110003)">
          <path
             style="stroke:none"
             d="m 0.875,-0.59375 c -0.03125,0.15625 -0.09375,0.390625 -0.09375,0.4375 0,0.171875 0.140625,0.265625 0.296875,0.265625 0.125,0 0.296875,-0.078125 0.375,-0.28125 0,-0.015625 0.125,-0.484375 0.1875,-0.734375 l 0.21875,-0.890625 C 1.90625,-2.03125 1.96875,-2.25 2.03125,-2.46875 c 0.03125,-0.171875 0.109375,-0.46875 0.125,-0.5 0.140625,-0.3125 0.671875,-1.21875 1.625,-1.21875 0.453125,0 0.53125,0.375 0.53125,0.703125 0,0.609375 -0.484375,1.890625 -0.640625,2.3125 C 3.578125,-0.9375 3.5625,-0.8125 3.5625,-0.703125 c 0,0.46875 0.359375,0.8125 0.828125,0.8125 0.9375,0 1.296875,-1.453125 1.296875,-1.53125 0,-0.109375 -0.078125,-0.109375 -0.109375,-0.109375 -0.109375,0 -0.109375,0.03125 -0.15625,0.1875 -0.203125,0.671875 -0.53125,1.234375 -1.015625,1.234375 -0.171875,0 -0.234375,-0.09375 -0.234375,-0.328125 0,-0.25 0.078125,-0.484375 0.171875,-0.703125 0.1875,-0.53125 0.609375,-1.625 0.609375,-2.203125 0,-0.65625 -0.421875,-1.0625 -1.140625,-1.0625 -0.90625,0 -1.390625,0.640625 -1.5625,0.875 -0.046875,-0.5625 -0.453125,-0.875 -0.921875,-0.875 -0.453125,0 -0.640625,0.390625 -0.734375,0.5625 C 0.421875,-3.5 0.296875,-2.90625 0.296875,-2.875 c 0,0.109375 0.09375,0.109375 0.109375,0.109375 0.109375,0 0.109375,-0.015625 0.171875,-0.234375 0.171875,-0.703125 0.375,-1.1875 0.734375,-1.1875 0.1875,0 0.296875,0.125 0.296875,0.453125 0,0.21875 -0.03125,0.328125 -0.15625,0.84375 z m 0,0"
             id="path30" />
        </g>
      </g>
    </g>
    <g
       id="g40"
       transform="translate(102.8566,6.9849538)">
      <circle
         style="fill:#ffffff;fill-opacity:1;stroke:#000000;stroke-width:0.5;stroke-linecap:round;stroke-linejoin:round;stroke-dasharray:none;stroke-dashoffset:0;stroke-opacity:1"
         id="path33"
         cx="25.951246"
         cy="120.87006"
         r="4.3360147" />
      <g
         style="fill:#000000;fill-opacity:1"
         id="g7"
         transform="matrix(0.84807122,0,0,0.84807122,22.11436,116.55195)">
        <g
           id="use6"
           transform="translate(1.993,8.4119997)">
          <path
             style="stroke:none"
             d="m 2.9375,-6.375 c 0,-0.25 0,-0.265625 -0.234375,-0.265625 C 2.078125,-6 1.203125,-6 0.890625,-6 v 0.3125 c 0.203125,0 0.78125,0 1.296875,-0.265625 v 5.171875 c 0,0.359375 -0.03125,0.46875 -0.921875,0.46875 h -0.3125 V 0 c 0.34375,-0.03125 1.203125,-0.03125 1.609375,-0.03125 0.390625,0 1.265625,0 1.609375,0.03125 v -0.3125 h -0.3125 c -0.90625,0 -0.921875,-0.109375 -0.921875,-0.46875 z m 0,0"
             id="path21" />
        </g>
      </g>
    </g>
    <g
       id="g36"
       transform="translate(36.509303,-13.776317)">
      <circle
         style="fill:#ffffff;fill-opacity:1;stroke:#000000;stroke-width:0.5;stroke-linecap:round;stroke-linejoin:round;stroke-dasharray:none;stroke-dashoffset:0;stroke-opacity:1"
         id="circle35"
         cx="39.225704"
         cy="119.5953"
         r="4.3360147" />
      <g
         style="fill:#000000;fill-opacity:1"
         id="g8"
         transform="matrix(0.84807122,0,0,0.84807122,28.390559,115.27719)">
        <g
           id="use7"
           transform="translate(10.291846,8.4119997)">
          <path
             style="stroke:none"
             d="m 1.265625,-0.765625 1.0625,-1.03125 c 1.546875,-1.375 2.140625,-1.90625 2.140625,-2.90625 0,-1.140625 -0.890625,-1.9375 -2.109375,-1.9375 -1.125,0 -1.859375,0.921875 -1.859375,1.8125 0,0.546875 0.5,0.546875 0.53125,0.546875 0.171875,0 0.515625,-0.109375 0.515625,-0.53125 0,-0.25 -0.1875,-0.515625 -0.53125,-0.515625 -0.078125,0 -0.09375,0 -0.125,0.015625 0.21875,-0.65625 0.765625,-1.015625 1.34375,-1.015625 0.90625,0 1.328125,0.8125 1.328125,1.625 C 3.5625,-3.90625 3.078125,-3.125 2.515625,-2.5 l -1.90625,2.125 C 0.5,-0.265625 0.5,-0.234375 0.5,0 H 4.203125 L 4.46875,-1.734375 H 4.234375 C 4.171875,-1.4375 4.109375,-1 4,-0.84375 3.9375,-0.765625 3.28125,-0.765625 3.0625,-0.765625 Z m 0,0"
             id="path22" />
        </g>
      </g>
    </g>
    <g
       id="g43"
       transform="translate(106.66052,138.78336)">
      <circle
         style="fill:#ffffff;fill-opacity:1;stroke:#000000;stroke-width:0.5;stroke-linecap:round;stroke-linejoin:round;stroke-dasharray:none;stroke-dashoffset:0;stroke-opacity:1"
         id="circle40"
         cx="25.951246"
         cy="120.87006"
         r="4.3360147" />
      <g
         style="fill:#000000;fill-opacity:1"
         id="g42"
         transform="matrix(0.84807122,0,0,0.84807122,22.11436,116.55195)">
        <g
           id="g41"
           transform="translate(1.993,8.4119997)">
          <path
             style="stroke:none"
             d="m 2.9375,-6.375 c 0,-0.25 0,-0.265625 -0.234375,-0.265625 C 2.078125,-6 1.203125,-6 0.890625,-6 v 0.3125 c 0.203125,0 0.78125,0 1.296875,-0.265625 v 5.171875 c 0,0.359375 -0.03125,0.46875 -0.921875,0.46875 h -0.3125 V 0 c 0.34375,-0.03125 1.203125,-0.03125 1.609375,-0.03125 0.390625,0 1.265625,0 1.609375,0.03125 v -0.3125 h -0.3125 c -0.90625,0 -0.921875,-0.109375 -0.921875,-0.46875 z m 0,0"
             id="path40" />
        </g>
      </g>
    </g>
    <g
       id="g46"
       transform="translate(9.4192015,118.40084)">
      <circle
         style="fill:#ffffff;fill-opacity:1;stroke:#000000;stroke-width:0.5;stroke-linecap:round;stroke-linejoin:round;stroke-dasharray:none;stroke-dashoffset:0;stroke-opacity:1"
         id="circle43"
         cx="39.225704"
         cy="119.5953"
         r="4.3360147" />
      <g
         style="fill:#000000;fill-opacity:1"
         id="g45"
         transform="matrix(0.84807122,0,0,0.84807122,28.390559,115.27719)">
        <g
           id="g44"
           transform="translate(10.291846,8.4119997)">
          <path
             style="stroke:none"
             d="m 1.265625,-0.765625 1.0625,-1.03125 c 1.546875,-1.375 2.140625,-1.90625 2.140625,-2.90625 0,-1.140625 -0.890625,-1.9375 -2.109375,-1.9375 -1.125,0 -1.859375,0.921875 -1.859375,1.8125 0,0.546875 0.5,0.546875 0.53125,0.546875 0.171875,0 0.515625,-0.109375 0.515625,-0.53125 0,-0.25 -0.1875,-0.515625 -0.53125,-0.515625 -0.078125,0 -0.09375,0 -0.125,0.015625 0.21875,-0.65625 0.765625,-1.015625 1.34375,-1.015625 0.90625,0 1.328125,0.8125 1.328125,1.625 C 3.5625,-3.90625 3.078125,-3.125 2.515625,-2.5 l -1.90625,2.125 C 0.5,-0.265625 0.5,-0.234375 0.5,0 H 4.203125 L 4.46875,-1.734375 H 4.234375 C 4.171875,-1.4375 4.109375,-1 4,-0.84375 3.9375,-0.765625 3.28125,-0.765625 3.0625,-0.765625 Z m 0,0"
             id="path43" />
        </g>
      </g>
    </g>
    <g
       id="g49"
       transform="translate(46.660531,84.593748)">
      <circle
         style="fill:#ffffff;fill-opacity:1;stroke:#000000;stroke-width:0.5;stroke-linecap:round;stroke-linejoin:round;stroke-dasharray:none;stroke-dashoffset:0;stroke-opacity:1"
         id="circle46"
         cx="38.839153"
         cy="108.71655"
         r="4.3360147" />
      <g
         style="fill:#000000;fill-opacity:1"
         id="g48"
         transform="matrix(0.84807122,0,0,0.84807122,20.950921,104.30568)">
        <g
           id="g47"
           transform="translate(18.600655,8.4119997)">
          <path
             style="stroke:none"
             d="m 2.890625,-3.515625 c 0.8125,-0.265625 1.390625,-0.953125 1.390625,-1.75 0,-0.8125 -0.875,-1.375 -1.828125,-1.375 -1,0 -1.765625,0.59375 -1.765625,1.359375 0,0.328125 0.21875,0.515625 0.515625,0.515625 0.296875,0 0.5,-0.21875 0.5,-0.515625 0,-0.484375 -0.46875,-0.484375 -0.609375,-0.484375 0.296875,-0.5 0.953125,-0.625 1.3125,-0.625 0.421875,0 0.96875,0.21875 0.96875,1.109375 0,0.125 -0.03125,0.703125 -0.28125,1.140625 C 2.796875,-3.65625 2.453125,-3.625 2.203125,-3.625 2.125,-3.609375 1.890625,-3.59375 1.8125,-3.59375 c -0.078125,0.015625 -0.140625,0.03125 -0.140625,0.125 0,0.109375 0.0625,0.109375 0.234375,0.109375 h 0.4375 c 0.8125,0 1.1875,0.671875 1.1875,1.65625 0,1.359375 -0.6875,1.640625 -1.125,1.640625 -0.4375,0 -1.1875,-0.171875 -1.53125,-0.75 0.34375,0.046875 0.65625,-0.171875 0.65625,-0.546875 0,-0.359375 -0.265625,-0.5625 -0.546875,-0.5625 -0.25,0 -0.5625,0.140625 -0.5625,0.578125 0,0.90625 0.921875,1.5625 2.015625,1.5625 1.21875,0 2.125,-0.90625 2.125,-1.921875 0,-0.8125 -0.640625,-1.59375 -1.671875,-1.8125 z m 0,0"
             id="path46" />
        </g>
      </g>
    </g>
    <path
       style="fill:none;stroke:#000000;stroke-width:0.5;stroke-linecap:round;stroke-linejoin:round;stroke-miterlimit:14.7;stroke-dasharray:none;stroke-opacity:1;marker-start:url(#Dot);marker-mid:url(#marker34);marker-end:url(#Dot)"
       d="m 72.660673,148.5 c 8.16807,-6.54833 16.336139,-13.09666 24.504209,-19.64499 7.176708,-5.75356 14.353428,-11.50712 21.530138,-17.26068"
       id="path1"
       inkscape:path-effect="#path-effect1"
       inkscape:original-d="m 72.660673,148.5 c 8.168068,-6.54833 16.336138,-13.09666 24.504209,-19.64499 7.176708,-5.75356 14.353428,-11.50712 21.530138,-17.26068"
       sodipodi:nodetypes="csc"
       transform="translate(0.81152482,12.685643)" />
    <path
       style="fill:none;stroke:#000000;stroke-width:0.5;stroke-linecap:round;stroke-linejoin:round;stroke-miterlimit:14.7;stroke-dasharray:none;stroke-opacity:1;marker-start:url(#Dot);marker-mid:url(#marker35);marker-end:url(#Dot)"
       d="m 118.69502,111.59433 c -5.91104,-2.05122 -11.82209,-4.10245 -17.73313,-6.15367 -5.91104,-2.05122 -11.82208,-4.10244 -17.733121,-6.153659"
       id="path6"
       inkscape:path-effect="#path-effect6"
       inkscape:original-d="m 118.69502,111.59433 c -5.91104,-2.05122 -11.82208,-4.10244 -17.73313,-6.15367 -5.911037,-2.05122 -11.82208,-4.10244 -17.733121,-6.153659"
       sodipodi:nodetypes="csc"
       transform="translate(0.81152482,12.685643)" />
    <path
       style="fill:none;stroke:#000000;stroke-width:0.5;stroke-linecap:round;stroke-linejoin:round;stroke-miterlimit:14.7;stroke-dasharray:none;stroke-opacity:1;marker-start:url(#Dot);marker-mid:url(#marker35);marker-end:url(#Dot)"
       d="m 83.228769,99.287001 c 6.667217,-1.879998 13.334434,-3.759996 20.001651,-5.639993 7.88167,-2.222444 15.76334,-4.444888 23.64501,-6.667331"
       id="path9"
       inkscape:path-effect="#path-effect9"
       inkscape:original-d="m 83.228769,99.287001 c 6.667218,-1.879998 13.334436,-3.759995 20.001651,-5.639993 7.88167,-2.222444 15.76334,-4.444887 23.64501,-6.667331"
       sodipodi:nodetypes="csc"
       transform="translate(0.81152482,12.685643)" />
    <path
       style="fill:none;stroke:#000000;stroke-width:0.5;stroke-linecap:round;stroke-linejoin:round;stroke-miterlimit:14.7;stroke-dasharray:none;stroke-opacity:1;marker-start:url(#Dot);marker-mid:url(#marker35);marker-end:url(#Dot)"
       d="m 128.61392,242.79527 c -10.62808,4.05704 -21.25616,8.11407 -31.884233,12.17111 -10.628078,4.05704 -21.256156,8.11407 -31.884234,12.17111"
       id="path29"
       sodipodi:nodetypes="ccc"
       inkscape:original-d="M 128.61392,242.79527 96.729687,254.96638 64.845453,267.13749"
       inkscape:path-effect="#path-effect29"
       transform="rotate(180,94.719604,260.43901)" />
    <path
       style="fill:none;stroke:#000000;stroke-width:0.5;stroke-linecap:round;stroke-linejoin:round;stroke-miterlimit:14.7;stroke-dasharray:none;stroke-opacity:1;marker-start:url(#Dot);marker-mid:url(#marker34);marker-end:url(#Dot)"
       d="m 96.914792,189.39583 c -5.568002,6.71879 -11.136005,13.43759 -16.704007,20.15638 -5.52224,6.66357 -11.04448,13.32715 -16.56672,19.99072"
       id="path31"
       inkscape:path-effect="#path-effect31"
       inkscape:original-d="m 96.914792,189.39583 c -5.568003,6.71879 -11.136005,13.43758 -16.704007,20.15638 -5.522241,6.66357 -11.044481,13.32714 -16.56672,19.99072"
       sodipodi:nodetypes="csc"
       transform="rotate(180,78.269347,214.94201)" />
    <path
       style="fill:none;stroke:#000000;stroke-width:0.5;stroke-linecap:round;stroke-linejoin:round;stroke-miterlimit:14.7;stroke-dasharray:none;stroke-opacity:1;marker-start:url(#Dot);marker-mid:url(#marker35);marker-end:url(#Dot)"
       d="m 115.58328,234.14235 c -9.5995,-3.3307 -19.202718,-6.65067 -28.809633,-9.95992 -9.535383,-3.2846 -19.074407,-6.55864 -28.61705,-9.82209"
       id="path32"
       inkscape:path-effect="#path-effect33"
       inkscape:original-d="m 115.58328,234.14235 c -5.56049,6.70972 -17.193474,-1.64597 -28.809633,-9.95992 -11.551967,-8.26801 -23.087294,-16.49474 -28.61705,-9.82209"
       transform="rotate(180,104.23897,217.24172)"
       sodipodi:nodetypes="csc" />
    <path
       style="fill:none;fill-opacity:0.768973;stroke:#ff0808;stroke-width:0.5;stroke-linecap:round;stroke-linejoin:round;stroke-miterlimit:14.7;stroke-dasharray:none;stroke-dashoffset:9.52441;stroke-opacity:1;marker-end:url(#marker35)"
       d="m 72.660673,148.5 12.78486,-21.61853"
       id="path45"
       inkscape:path-effect="#path-effect46"
       inkscape:original-d="m 72.660673,148.5 c 4.26162,-7.20618 8.52324,-14.41236 12.78486,-21.61853"
       transform="translate(0.81152482,12.685643)" />
    <path
       style="fill:none;fill-opacity:0.768973;stroke:#ff0808;stroke-width:0.5;stroke-linecap:round;stroke-linejoin:round;stroke-miterlimit:14.7;stroke-dasharray:none;stroke-dashoffset:9.52441;stroke-opacity:1;marker-end:url(#marker35)"
       d="M 70.91888,139.20359 84.861699,126.3024"
       id="path47"
       inkscape:path-effect="#path-effect48"
       inkscape:original-d="m 70.91888,139.20359 c 4.26162,-7.20618 9.681199,-5.69502 13.942819,-12.90119"
       transform="translate(40.650696,-24.526315)"
       sodipodi:nodetypes="cc" />
    <path
       style="fill:none;stroke:#000000;stroke-width:0.648944;stroke-linecap:round;stroke-linejoin:round;stroke-miterlimit:14.7;stroke-dasharray:none;stroke-opacity:1;marker-start:url(#Dot);marker-mid:url(#marker34);marker-end:url(#Dot)"
       d="m 72.660673,148.5 c 8.16807,-6.54833 16.336139,-13.09666 24.504209,-19.64499 7.176708,-5.75356 14.353428,-11.50712 21.530138,-17.26068"
       id="path36"
       inkscape:path-effect="#path-effect37"
       inkscape:original-d="m 72.660673,148.5 c 8.168068,-6.54833 16.336138,-13.09666 24.504209,-19.64499 7.176708,-5.75356 14.353428,-11.50712 21.530138,-17.26068"
       sodipodi:nodetypes="csc"
       transform="matrix(0.77048246,0,0,0.77048246,8.7512685,-61.575804)" />
    <path
       style="fill:none;stroke:#000000;stroke-width:0.5;stroke-linecap:round;stroke-linejoin:round;stroke-miterlimit:14.7;stroke-dasharray:none;stroke-opacity:1;marker-start:url(#Dot);marker-mid:url(#marker35);marker-end:url(#Dot)"
       d="m 83.228769,99.287001 c 6.667217,-1.879998 13.334434,-3.759996 20.001651,-5.639993 7.88167,-2.222444 15.76334,-4.444888 23.64501,-6.667331"
       id="path38"
       inkscape:path-effect="#path-effect39"
       inkscape:original-d="m 83.228769,99.287001 c 6.667218,-1.879998 13.334436,-3.759995 20.001651,-5.639993 7.88167,-2.222444 15.76334,-4.444887 23.64501,-6.667331"
       sodipodi:nodetypes="csc"
       transform="rotate(35.724008,207.89813,88.183735)" />
    <g
       id="g55"
       transform="translate(73.748691,-106.02156)">
      <circle
         style="fill:#ffffff;fill-opacity:1;stroke:#000000;stroke-width:0.5;stroke-linecap:round;stroke-linejoin:round;stroke-dasharray:none;stroke-dashoffset:0;stroke-opacity:1"
         id="circle39"
         cx="25.951246"
         cy="120.87006"
         r="4.3360147" />
      <g
         style="fill:#000000;fill-opacity:1"
         id="g54"
         transform="matrix(0.84807122,0,0,0.84807122,22.11436,116.55195)">
        <g
           id="g53"
           transform="translate(1.993,8.4119997)">
          <path
             style="stroke:none"
             d="m 2.9375,-6.375 c 0,-0.25 0,-0.265625 -0.234375,-0.265625 C 2.078125,-6 1.203125,-6 0.890625,-6 v 0.3125 c 0.203125,0 0.78125,0 1.296875,-0.265625 v 5.171875 c 0,0.359375 -0.03125,0.46875 -0.921875,0.46875 h -0.3125 V 0 c 0.34375,-0.03125 1.203125,-0.03125 1.609375,-0.03125 0.390625,0 1.265625,0 1.609375,0.03125 v -0.3125 h -0.3125 c -0.90625,0 -0.921875,-0.109375 -0.921875,-0.46875 z m 0,0"
             id="path39" />
        </g>
      </g>
    </g>
    <g
       id="g68"
       transform="translate(-59.10767,2.121376)">
      <g
         id="use3"
         transform="matrix(0.352778,0,0,0.352778,118.23544,59.322039)"
         style="fill:#000000;fill-opacity:1">
        <path
           d="m 9.640625,-10.140625 c -0.765625,0.15625 -1.171875,0.703125 -1.171875,1.25 0,0.59375 0.484375,0.78125 0.828125,0.78125 0.6875,0 1.265625,-0.59375 1.265625,-1.328125 0,-0.796875 -0.78125,-1.484375 -2.015625,-1.484375 -0.984375,0 -2.125,0.4375 -3.171875,1.953125 -0.171875,-1.3125 -1.15625,-1.953125 -2.15625,-1.953125 -0.96875,0 -1.453125,0.734375 -1.75,1.28125 -0.421875,0.890625 -0.796875,2.375 -0.796875,2.5 0,0.109375 0.09375,0.234375 0.265625,0.234375 0.203125,0 0.234375,-0.03125 0.375,-0.609375 C 1.6875,-9 2.15625,-10.4375 3.140625,-10.4375 c 0.59375,0 0.78125,0.421875 0.78125,1.140625 0,0.546875 -0.25,1.515625 -0.421875,2.28125 L 2.796875,-4.34375 c -0.09375,0.484375 -0.375,1.59375 -0.5,2.046875 C 2.125,-1.65625 1.859375,-0.5 1.859375,-0.375 1.859375,-0.03125 2.125,0.25 2.5,0.25 2.78125,0.25 3.25,0.078125 3.390625,-0.421875 3.46875,-0.625 4.390625,-4.359375 4.53125,-4.9375 4.65625,-5.484375 4.8125,-6 4.9375,-6.546875 c 0.09375,-0.34375 0.1875,-0.734375 0.265625,-1.0625 0.078125,-0.21875 0.75,-1.4375 1.359375,-1.984375 0.296875,-0.265625 0.953125,-0.84375 1.96875,-0.84375 0.390625,0 0.78125,0.07813 1.109375,0.296875 z m 0,0"
           id="path61" />
      </g>
      <g
         id="g62"
         transform="matrix(0.352778,0,0,0.352778,122.33154,56.148801)"
         style="fill:#000000;fill-opacity:1">
        <path
           d="m 13.609375,-4.75 c 0.359375,0 0.71875,0 0.71875,-0.421875 0,-0.40625 -0.359375,-0.40625 -0.71875,-0.40625 H 2.4375 c -0.34375,0 -0.71875,0 -0.71875,0.40625 0,0.421875 0.375,0.421875 0.71875,0.421875 z m 0,0"
           id="path62" />
      </g>
    </g>
    <g
       id="g69"
       transform="translate(15.142327,-13.347374)">
      <g
         id="g64"
         transform="matrix(0.352778,0,0,0.352778,130.81656,59.322039)"
         style="fill:#000000;fill-opacity:1">
        <path
           d="m 9.640625,-10.140625 c -0.765625,0.15625 -1.171875,0.703125 -1.171875,1.25 0,0.59375 0.484375,0.78125 0.828125,0.78125 0.6875,0 1.265625,-0.59375 1.265625,-1.328125 0,-0.796875 -0.78125,-1.484375 -2.015625,-1.484375 -0.984375,0 -2.125,0.4375 -3.171875,1.953125 -0.171875,-1.3125 -1.15625,-1.953125 -2.15625,-1.953125 -0.96875,0 -1.453125,0.734375 -1.75,1.28125 -0.421875,0.890625 -0.796875,2.375 -0.796875,2.5 0,0.109375 0.09375,0.234375 0.265625,0.234375 0.203125,0 0.234375,-0.03125 0.375,-0.609375 C 1.6875,-9 2.15625,-10.4375 3.140625,-10.4375 c 0.59375,0 0.78125,0.421875 0.78125,1.140625 0,0.546875 -0.25,1.515625 -0.421875,2.28125 L 2.796875,-4.34375 c -0.09375,0.484375 -0.375,1.59375 -0.5,2.046875 C 2.125,-1.65625 1.859375,-0.5 1.859375,-0.375 1.859375,-0.03125 2.125,0.25 2.5,0.25 2.78125,0.25 3.25,0.078125 3.390625,-0.421875 3.46875,-0.625 4.390625,-4.359375 4.53125,-4.9375 4.65625,-5.484375 4.8125,-6 4.9375,-6.546875 c 0.09375,-0.34375 0.1875,-0.734375 0.265625,-1.0625 0.078125,-0.21875 0.75,-1.4375 1.359375,-1.984375 0.296875,-0.265625 0.953125,-0.84375 1.96875,-0.84375 0.390625,0 0.78125,0.07813 1.109375,0.296875 z m 0,0"
           id="path63" />
      </g>
      <g
         id="g66"
         transform="matrix(0.352778,0,0,0.352778,134.91302,56.148801)"
         style="fill:#000000;fill-opacity:1">
        <path
           d="m 7.78125,-4.796875 h 5.484375 c 0.28125,0 0.640625,0 0.640625,-0.34375 0,-0.375 -0.328125,-0.375 -0.640625,-0.375 H 7.78125 v -5.46875 c 0,-0.296875 0,-0.640625 -0.34375,-0.640625 -0.375,0 -0.375,0.328125 -0.375,0.640625 v 5.46875 H 1.59375 c -0.296875,0 -0.640625,0 -0.640625,0.34375 0,0.375 0.328125,0.375 0.640625,0.375 H 7.0625 V 0.6875 c 0,0.28125 0,0.640625 0.359375,0.640625 0.359375,0 0.359375,-0.34375 0.359375,-0.640625 z m 0,0"
           id="path65" />
      </g>
    </g>
    <g
       id="g72"
       transform="translate(-57.048742,105.58253)">
      <g
         id="g70"
         transform="matrix(0.352778,0,0,0.352778,118.23544,59.322039)"
         style="fill:#000000;fill-opacity:1">
        <path
           d="m 9.640625,-10.140625 c -0.765625,0.15625 -1.171875,0.703125 -1.171875,1.25 0,0.59375 0.484375,0.78125 0.828125,0.78125 0.6875,0 1.265625,-0.59375 1.265625,-1.328125 0,-0.796875 -0.78125,-1.484375 -2.015625,-1.484375 -0.984375,0 -2.125,0.4375 -3.171875,1.953125 -0.171875,-1.3125 -1.15625,-1.953125 -2.15625,-1.953125 -0.96875,0 -1.453125,0.734375 -1.75,1.28125 -0.421875,0.890625 -0.796875,2.375 -0.796875,2.5 0,0.109375 0.09375,0.234375 0.265625,0.234375 0.203125,0 0.234375,-0.03125 0.375,-0.609375 C 1.6875,-9 2.15625,-10.4375 3.140625,-10.4375 c 0.59375,0 0.78125,0.421875 0.78125,1.140625 0,0.546875 -0.25,1.515625 -0.421875,2.28125 L 2.796875,-4.34375 c -0.09375,0.484375 -0.375,1.59375 -0.5,2.046875 C 2.125,-1.65625 1.859375,-0.5 1.859375,-0.375 1.859375,-0.03125 2.125,0.25 2.5,0.25 2.78125,0.25 3.25,0.078125 3.390625,-0.421875 3.46875,-0.625 4.390625,-4.359375 4.53125,-4.9375 4.65625,-5.484375 4.8125,-6 4.9375,-6.546875 c 0.09375,-0.34375 0.1875,-0.734375 0.265625,-1.0625 0.078125,-0.21875 0.75,-1.4375 1.359375,-1.984375 0.296875,-0.265625 0.953125,-0.84375 1.96875,-0.84375 0.390625,0 0.78125,0.07813 1.109375,0.296875 z m 0,0"
           id="path69" />
      </g>
      <g
         id="g71"
         transform="matrix(0.352778,0,0,0.352778,122.33154,56.148801)"
         style="fill:#000000;fill-opacity:1">
        <path
           d="m 13.609375,-4.75 c 0.359375,0 0.71875,0 0.71875,-0.421875 0,-0.40625 -0.359375,-0.40625 -0.71875,-0.40625 H 2.4375 c -0.34375,0 -0.71875,0 -0.71875,0.40625 0,0.421875 0.375,0.421875 0.71875,0.421875 z m 0,0"
           id="path70" />
      </g>
    </g>
    <g
       id="g75"
       transform="translate(1.2445591,41.471597)">
      <g
         id="g73"
         transform="matrix(0.352778,0,0,0.352778,130.81656,59.322039)"
         style="fill:#000000;fill-opacity:1">
        <path
           d="m 9.640625,-10.140625 c -0.765625,0.15625 -1.171875,0.703125 -1.171875,1.25 0,0.59375 0.484375,0.78125 0.828125,0.78125 0.6875,0 1.265625,-0.59375 1.265625,-1.328125 0,-0.796875 -0.78125,-1.484375 -2.015625,-1.484375 -0.984375,0 -2.125,0.4375 -3.171875,1.953125 -0.171875,-1.3125 -1.15625,-1.953125 -2.15625,-1.953125 -0.96875,0 -1.453125,0.734375 -1.75,1.28125 -0.421875,0.890625 -0.796875,2.375 -0.796875,2.5 0,0.109375 0.09375,0.234375 0.265625,0.234375 0.203125,0 0.234375,-0.03125 0.375,-0.609375 C 1.6875,-9 2.15625,-10.4375 3.140625,-10.4375 c 0.59375,0 0.78125,0.421875 0.78125,1.140625 0,0.546875 -0.25,1.515625 -0.421875,2.28125 L 2.796875,-4.34375 c -0.09375,0.484375 -0.375,1.59375 -0.5,2.046875 C 2.125,-1.65625 1.859375,-0.5 1.859375,-0.375 1.859375,-0.03125 2.125,0.25 2.5,0.25 2.78125,0.25 3.25,0.078125 3.390625,-0.421875 3.46875,-0.625 4.390625,-4.359375 4.53125,-4.9375 4.65625,-5.484375 4.8125,-6 4.9375,-6.546875 c 0.09375,-0.34375 0.1875,-0.734375 0.265625,-1.0625 0.078125,-0.21875 0.75,-1.4375 1.359375,-1.984375 0.296875,-0.265625 0.953125,-0.84375 1.96875,-0.84375 0.390625,0 0.78125,0.07813 1.109375,0.296875 z m 0,0"
           id="path72" />
      </g>
      <g
         id="g74"
         transform="matrix(0.352778,0,0,0.352778,134.91302,56.148801)"
         style="fill:#000000;fill-opacity:1">
        <path
           d="m 7.78125,-4.796875 h 5.484375 c 0.28125,0 0.640625,0 0.640625,-0.34375 0,-0.375 -0.328125,-0.375 -0.640625,-0.375 H 7.78125 v -5.46875 c 0,-0.296875 0,-0.640625 -0.34375,-0.640625 -0.375,0 -0.375,0.328125 -0.375,0.640625 v 5.46875 H 1.59375 c -0.296875,0 -0.640625,0 -0.640625,0.34375 0,0.375 0.328125,0.375 0.640625,0.375 H 7.0625 V 0.6875 c 0,0.28125 0,0.640625 0.359375,0.640625 0.359375,0 0.359375,-0.34375 0.359375,-0.640625 z m 0,0"
           id="path73" />
      </g>
    </g>
    <g
       id="g78"
       transform="translate(-71.975974,221.91228)">
      <g
         id="g76"
         transform="matrix(0.352778,0,0,0.352778,118.23544,59.322039)"
         style="fill:#000000;fill-opacity:1">
        <path
           d="m 9.640625,-10.140625 c -0.765625,0.15625 -1.171875,0.703125 -1.171875,1.25 0,0.59375 0.484375,0.78125 0.828125,0.78125 0.6875,0 1.265625,-0.59375 1.265625,-1.328125 0,-0.796875 -0.78125,-1.484375 -2.015625,-1.484375 -0.984375,0 -2.125,0.4375 -3.171875,1.953125 -0.171875,-1.3125 -1.15625,-1.953125 -2.15625,-1.953125 -0.96875,0 -1.453125,0.734375 -1.75,1.28125 -0.421875,0.890625 -0.796875,2.375 -0.796875,2.5 0,0.109375 0.09375,0.234375 0.265625,0.234375 0.203125,0 0.234375,-0.03125 0.375,-0.609375 C 1.6875,-9 2.15625,-10.4375 3.140625,-10.4375 c 0.59375,0 0.78125,0.421875 0.78125,1.140625 0,0.546875 -0.25,1.515625 -0.421875,2.28125 L 2.796875,-4.34375 c -0.09375,0.484375 -0.375,1.59375 -0.5,2.046875 C 2.125,-1.65625 1.859375,-0.5 1.859375,-0.375 1.859375,-0.03125 2.125,0.25 2.5,0.25 2.78125,0.25 3.25,0.078125 3.390625,-0.421875 3.46875,-0.625 4.390625,-4.359375 4.53125,-4.9375 4.65625,-5.484375 4.8125,-6 4.9375,-6.546875 c 0.09375,-0.34375 0.1875,-0.734375 0.265625,-1.0625 0.078125,-0.21875 0.75,-1.4375 1.359375,-1.984375 0.296875,-0.265625 0.953125,-0.84375 1.96875,-0.84375 0.390625,0 0.78125,0.07813 1.109375,0.296875 z m 0,0"
           id="path75" />
      </g>
      <g
         id="g77"
         transform="matrix(0.352778,0,0,0.352778,122.33154,56.148801)"
         style="fill:#000000;fill-opacity:1">
        <path
           d="m 13.609375,-4.75 c 0.359375,0 0.71875,0 0.71875,-0.421875 0,-0.40625 -0.359375,-0.40625 -0.71875,-0.40625 H 2.4375 c -0.34375,0 -0.71875,0 -0.71875,0.40625 0,0.421875 0.375,0.421875 0.71875,0.421875 z m 0,0"
           id="path76" />
      </g>
    </g>
    <g
       id="g81"
       transform="translate(23.378041,160.24477)">
      <g
         id="g79"
         transform="matrix(0.352778,0,0,0.352778,130.81656,59.322039)"
         style="fill:#000000;fill-opacity:1">
        <path
           d="m 9.640625,-10.140625 c -0.765625,0.15625 -1.171875,0.703125 -1.171875,1.25 0,0.59375 0.484375,0.78125 0.828125,0.78125 0.6875,0 1.265625,-0.59375 1.265625,-1.328125 0,-0.796875 -0.78125,-1.484375 -2.015625,-1.484375 -0.984375,0 -2.125,0.4375 -3.171875,1.953125 -0.171875,-1.3125 -1.15625,-1.953125 -2.15625,-1.953125 -0.96875,0 -1.453125,0.734375 -1.75,1.28125 -0.421875,0.890625 -0.796875,2.375 -0.796875,2.5 0,0.109375 0.09375,0.234375 0.265625,0.234375 0.203125,0 0.234375,-0.03125 0.375,-0.609375 C 1.6875,-9 2.15625,-10.4375 3.140625,-10.4375 c 0.59375,0 0.78125,0.421875 0.78125,1.140625 0,0.546875 -0.25,1.515625 -0.421875,2.28125 L 2.796875,-4.34375 c -0.09375,0.484375 -0.375,1.59375 -0.5,2.046875 C 2.125,-1.65625 1.859375,-0.5 1.859375,-0.375 1.859375,-0.03125 2.125,0.25 2.5,0.25 2.78125,0.25 3.25,0.078125 3.390625,-0.421875 3.46875,-0.625 4.390625,-4.359375 4.53125,-4.9375 4.65625,-5.484375 4.8125,-6 4.9375,-6.546875 c 0.09375,-0.34375 0.1875,-0.734375 0.265625,-1.0625 0.078125,-0.21875 0.75,-1.4375 1.359375,-1.984375 0.296875,-0.265625 0.953125,-0.84375 1.96875,-0.84375 0.390625,0 0.78125,0.07813 1.109375,0.296875 z m 0,0"
           id="path78" />
      </g>
      <g
         id="g80"
         transform="matrix(0.352778,0,0,0.352778,134.91302,56.148801)"
         style="fill:#000000;fill-opacity:1">
        <path
           d="m 7.78125,-4.796875 h 5.484375 c 0.28125,0 0.640625,0 0.640625,-0.34375 0,-0.375 -0.328125,-0.375 -0.640625,-0.375 H 7.78125 v -5.46875 c 0,-0.296875 0,-0.640625 -0.34375,-0.640625 -0.375,0 -0.375,0.328125 -0.375,0.640625 v 5.46875 H 1.59375 c -0.296875,0 -0.640625,0 -0.640625,0.34375 0,0.375 0.328125,0.375 0.640625,0.375 H 7.0625 V 0.6875 c 0,0.28125 0,0.640625 0.359375,0.640625 0.359375,0 0.359375,-0.34375 0.359375,-0.640625 z m 0,0"
           id="path79" />
      </g>
    </g>
  </g>
</svg>
